<?xml version="1.0" standalone="no"?>
<!DOCTYPE svg PUBLIC "-//W3C//DTD SVG 1.1//EN" "http://www.w3.org/Graphics/SVG/1.1/DTD/svg11.dtd" >
<svg xmlns="http://www.w3.org/2000/svg" xmlns:xlink="http://www.w3.org/1999/xlink" version="1.1">
<metadata>
Created by FontForge 20170731 at Tue Mar 13 19:37:42 2018
 By Aleksey,,,
Copyright (c) 2018 by MadeType. All rights reserved.
</metadata>
<defs>
<font id="MADEEvolveSansEVO-Medium" horiz-adv-x="759" >
  <font-face 
    font-family="MADE Evolve Sans EVO"
    font-weight="500"
    font-stretch="normal"
    units-per-em="1000"
    panose-1="2 0 6 3 0 0 0 2 0 4"
    ascent="800"
    descent="-200"
    x-height="482"
    cap-height="700"
    bbox="-65 -226.113 1023 975"
    underline-thickness="50"
    underline-position="-200"
    unicode-range="U+0020-F6C3"
  />
<missing-glyph horiz-adv-x="280" 
 />
    <glyph glyph-name=".notdef" horiz-adv-x="280" 
 />
    <glyph glyph-name=".null" horiz-adv-x="0" 
 />
    <glyph glyph-name="nonmarkingreturn" horiz-adv-x="333" 
 />
    <glyph glyph-name="space" unicode=" " horiz-adv-x="280" 
 />
    <glyph glyph-name="exclam" unicode="!" horiz-adv-x="231" 
d="M149 174h-67l-16 526h99zM115 -18q-23 0 -39 16.5t-16 39.5q0 22 16 38.5t39 16.5t39.5 -16t16.5 -39t-16.5 -39.5t-39.5 -16.5z" />
    <glyph glyph-name="quotedbl" unicode="&#x22;" horiz-adv-x="307" 
d="M72 538l-22 168h91l-22 -168h-47zM176 706h91l-22 -168h-47z" />
    <glyph glyph-name="numbersign" unicode="#" horiz-adv-x="742" 
d="M692 417h-136l-31 -146h150l-20 -93h-149l-38 -178h-94l37 178h-143l-37 -178h-95l38 178h-144l20 93h143l31 146h-157l20 92h156l40 191h95l-40 -191h142l41 191h94l-40 -191h137zM430 271l31 146h-143l-30 -146h142z" />
    <glyph glyph-name="dollar" unicode="$" horiz-adv-x="596" 
d="M561 195q0 -79 -56 -135t-156 -66v-95h-95v98q-82 12 -140.5 54t-83.5 100l90 31q20 -41 69 -67.5t120 -26.5q65 0 107.5 28.5t42.5 75.5q0 44 -40 67.5t-141 53.5q-59 17 -96.5 32t-70.5 38.5t-47.5 56.5t-13.5 77q3 78 57.5 129t146.5 60v95h95v-98q70 -12 118 -52.5
t70 -98.5l-91 -31q-35 91 -153 91q-72 0 -107 -28.5t-35 -69.5q0 -39 36 -61.5t124 -47.5q62 -18 101 -33t76.5 -39.5t55 -58t17.5 -79.5z" />
    <glyph glyph-name="percent" unicode="%" horiz-adv-x="713" 
d="M523 700h107l-438 -700h-107zM317 563q0 -59 -42 -101.5t-101 -42.5t-101.5 42.5t-42.5 101.5t42.5 101t101.5 42t101 -42t42 -101zM108 563q0 -27 19.5 -46.5t46.5 -19.5t46 19.5t19 46.5t-19 46t-46 19t-46.5 -19t-19.5 -46zM539 280q59 0 101.5 -42.5t42.5 -101.5
t-42.5 -101t-101.5 -42t-101.5 42t-42.5 101t42.5 101.5t101.5 42.5zM539 71q27 0 46 19t19 46t-19 46.5t-46 19.5t-46.5 -19.5t-19.5 -46.5t19.5 -46t46.5 -19z" />
    <glyph glyph-name="ampersand" unicode="&#x26;" horiz-adv-x="691" 
d="M582 137l94 -84l-60 -66l-87 77q-117 -124 -271 -119q-119 5 -182 81.5t-47 182.5q19 121 140 230q-52 95 -15 180q19 42 58 67.5t84 25.5q77 0 120 -52.5t45 -122.5l-89 -3q-1 11 -3 21t-9 27.5t-23.5 28.5t-40.5 11q-41 0 -60 -40q-29 -64 48 -153q90 -104 229 -230
q24 47 35 106l87 -5q-13 -95 -53 -163zM265 35q109 -6 195 90q-156 140 -239 240q-94 -82 -103 -166q-6 -66 31.5 -113t115.5 -51z" />
    <glyph glyph-name="quotesingle" unicode="'" horiz-adv-x="181" 
d="M50 706h91l-22 -168h-47z" />
    <glyph glyph-name="parenleft" unicode="(" horiz-adv-x="299" 
d="M289 700q-91 -110 -126 -260t-6.5 -299t115.5 -257l-65 -53q-155 193 -146 469q4 128 47 246.5t117 207.5z" />
    <glyph glyph-name="parenright" unicode=")" horiz-adv-x="299" 
d="M92 754q155 -193 146 -469q-4 -128 -47 -247t-117 -207l-64 54q91 110 126 259.5t6.5 299t-115.5 257.5z" />
    <glyph glyph-name="asterisk" unicode="*" horiz-adv-x="342" 
d="M322 588l-91 -37l91 -37l-44 -75l-77 59l13 -96h-87l14 96l-78 -59l-43 75l90 37l-90 37l43 75l78 -60l-14 97h87l-13 -97l77 60z" />
    <glyph glyph-name="plus" unicode="+" horiz-adv-x="508" 
d="M448 348v-84h-152v-152h-84v152h-152v84h152v152h84v-152h152z" />
    <glyph glyph-name="comma" unicode="," horiz-adv-x="196" 
d="M62 52h94l-70 -168h-56z" />
    <glyph glyph-name="hyphen" unicode="-" horiz-adv-x="450" 
d="M60 348h330v-84h-330v84z" />
    <glyph glyph-name="period" unicode="." horiz-adv-x="231" 
d="M116 -18q-23 0 -39.5 16.5t-16.5 39.5t16.5 39t39.5 16q22 0 38.5 -16.5t16.5 -38.5q0 -23 -16 -39.5t-39 -16.5z" />
    <glyph glyph-name="slash" unicode="/" horiz-adv-x="401" 
d="M300 751h91l-300 -905h-91z" />
    <glyph glyph-name="zero" unicode="0" horiz-adv-x="533" 
d="M266 706q110 0 168.5 -100t58.5 -257q0 -156 -58.5 -256t-168.5 -100q-109 0 -167.5 100t-58.5 256q0 157 58.5 257t167.5 100zM266 88q45 0 76 41t43 97.5t12 122.5q0 67 -12 123.5t-43 97.5t-76 41t-75.5 -41t-43 -98t-12.5 -123t12.5 -122.5t43 -97.5t75.5 -41z" />
    <glyph glyph-name="one" unicode="1" horiz-adv-x="444" 
d="M283 90h111v-90h-316v90h110v482l-110 -81l-48 52l158 157h95v-610z" />
    <glyph glyph-name="two" unicode="2" horiz-adv-x="499" 
d="M168 95h291v-95h-424v95q105 112 217 247q80 98 80 170q0 39 -20.5 62.5t-60.5 26.5q-78 5 -110 -88l-97 36q58 162 220 156q82 -4 128 -56t46 -127q0 -116 -98 -234q-57 -69 -172 -193z" />
    <glyph glyph-name="three" unicode="3" horiz-adv-x="533" 
d="M279 421q109 0 167.5 -60t50.5 -158q-8 -97 -75.5 -155t-162.5 -55q-70 2 -133 36t-91 92l85 45q46 -75 136 -78q62 -1 100 32t43 86q5 59 -28.5 97.5t-94.5 42.5q-48 3 -78 -8l-53 61l178 206h-236v95h363v-95l-173 -184h2z" />
    <glyph glyph-name="four" unicode="4" horiz-adv-x="535" 
d="M505 249v-95h-80v-154h-95v154h-300v95l271 451h109l-271 -451h191v157h95v-157h80z" />
    <glyph glyph-name="five" unicode="5" horiz-adv-x="519" 
d="M265 433q108 -3 167 -67.5t51 -162.5q-8 -97 -72.5 -155t-159.5 -55q-70 2 -131 36t-90 92l82 42q44 -72 136 -75q61 -1 96.5 31.5t40.5 86.5q5 58 -30.5 95.5t-97.5 41.5q-17 1 -34.5 -1t-27.5 -5t-20 -6.5t-11 -3.5l-88 18l70 355h315v-95h-245l-34 -185q49 14 83 13z
" />
    <glyph glyph-name="six" unicode="6" horiz-adv-x="514" 
d="M257 447q96 1 162 -65.5t66 -161.5t-65.5 -161t-162.5 -66t-162.5 63.5t-65.5 157.5t83 216l180 270h108l-167 -256q10 3 24 3zM257 88q54 0 91 38.5t37 93.5t-37 93.5t-91 38.5q-53 0 -89 -38.5t-36 -93.5t35.5 -93.5t89.5 -38.5z" />
    <glyph glyph-name="seven" unicode="7" horiz-adv-x="452" 
d="M30 700h402v-96l-272 -604h-101l271 604h-300v96z" />
    <glyph glyph-name="eight" unicode="8" horiz-adv-x="537" 
d="M385 387q50 -25 81 -73.5t31 -108.5q0 -94 -66.5 -153t-161.5 -59t-162 59t-67 153q0 60 31.5 108.5t80.5 73.5q-73 49 -73 135q0 80 53.5 132t136.5 52q82 0 136 -52t54 -132q0 -42 -20.5 -77.5t-53.5 -57.5zM269 611q-43 0 -70 -26t-27 -66q0 -38 28.5 -63.5
t68.5 -25.5t68.5 25.5t28.5 63.5q0 40 -27 66t-70 26zM269 88q58 0 95.5 33.5t37.5 89.5q0 55 -38 89.5t-95 35.5q-57 -1 -95 -35.5t-38 -89.5q0 -56 37.5 -89.5t95.5 -33.5z" />
    <glyph glyph-name="nine" unicode="9" horiz-adv-x="514" 
d="M257 253q-95 -1 -161.5 66t-66.5 161q0 95 65.5 161t162.5 66q98 0 163 -63.5t65 -157.5q0 -93 -82 -216l-180 -270h-109l168 256q-11 -3 -25 -3zM257 612q-54 0 -90.5 -39t-36.5 -93q0 -55 36.5 -93.5t90.5 -38.5t89.5 38.5t35.5 93.5t-35.5 93.5t-89.5 38.5z" />
    <glyph glyph-name="colon" unicode=":" horiz-adv-x="251" 
d="M115 -18q-23 0 -39 16.5t-16 39.5q0 22 16 38.5t39 16.5t39.5 -16t16.5 -39t-16.5 -39.5t-39.5 -16.5zM115 386q-23 0 -39 16t-16 39t16 39t39 16t39.5 -16t16.5 -39t-16.5 -39t-39.5 -16z" />
    <glyph glyph-name="semicolon" unicode=";" horiz-adv-x="251" 
d="M40 -116l31 168h94l-69 -168h-56zM116 386q-23 0 -39.5 16t-16.5 39t16.5 39t39.5 16q22 0 38.5 -16t16.5 -39t-16 -39t-39 -16z" />
    <glyph glyph-name="less" unicode="&#x3c;" horiz-adv-x="462" 
d="M402 536v-106l-227 -105l227 -104v-106l-342 157v106z" />
    <glyph glyph-name="equal" unicode="=" horiz-adv-x="509" 
d="M60 425h389v-83h-389v83zM60 178v84h389v-84h-389z" />
    <glyph glyph-name="greater" unicode="&#x3e;" horiz-adv-x="463" 
d="M60 536l343 -158v-106l-343 -157v106l227 104l-227 105v106z" />
    <glyph glyph-name="question" unicode="?" horiz-adv-x="435" 
d="M220 706q92 0 148.5 -64t26.5 -179q-17 -65 -92 -150q-26 -30 -38.5 -46t-25.5 -42.5t-14 -50.5h-90q1 41 17.5 80t32.5 61.5t46 57.5q57 64 69 112q15 60 -9 92t-70 33q-41 1 -66.5 -29t-33.5 -72l-91 22q15 74 61.5 124.5t128.5 50.5zM182 -18q-23 0 -39.5 16.5
t-16.5 39.5t16.5 39t39.5 16q22 0 38.5 -16.5t16.5 -38.5q0 -23 -16 -39.5t-39 -16.5z" />
    <glyph glyph-name="at" unicode="@" horiz-adv-x="950" 
d="M908 266q9 -143 -45 -230.5t-143 -76.5q-82 10 -114 108q-49 -70 -143 -70q-95 0 -154 66.5t-59 163.5q0 96 59 162.5t154 66.5q77 0 125 -48v28h89v-216q0 -87 10 -126.5t45 -45.5q17 -2 33 6.5t30.5 30t21.5 65.5t4 104q-3 64 -24.5 116.5t-55.5 87.5t-78 59.5
t-91 35.5t-97 11q-131 0 -225 -68t-116 -213q-14 -92 18 -176.5t97 -137.5q153 -123 367 -40l32 -84q-117 -50 -237 -35.5t-218 90.5q-84 63 -124 171t-24 226q8 59 36.5 118.5t78 114.5t131.5 89.5t184 34.5q106 0 190 -35.5t134 -93.5t77.5 -124t31.5 -135zM463 85
q58 0 89.5 40.5t31.5 101.5t-31.5 101t-89.5 40t-88.5 -40t-30.5 -101t31 -101.5t88 -40.5z" />
    <glyph glyph-name="A" unicode="A" horiz-adv-x="636" 
d="M364 700l252 -700h-105l-193 557l-193 -557h-105l251 700h93z" />
    <glyph glyph-name="B" unicode="B" horiz-adv-x="592" 
d="M331 95q60 0 94 32t34 85q0 52 -33.5 82.5t-94.5 30.5h-171v-230h171zM447 381q51 -22 80.5 -65.5t29.5 -103.5q0 -94 -63 -153t-163 -59h-266v415h247q50 0 77.5 27.5t27.5 68.5q0 42 -22.5 68t-67.5 26h-262v95h262q89 0 139 -54.5t50 -134.5q0 -75 -69 -130z" />
    <glyph glyph-name="C" unicode="C" horiz-adv-x="703" 
d="M380 88q65 0 117 30t84 82l88 -44q-45 -75 -121 -119t-168 -44q-146 0 -243 103.5t-97 252.5q0 150 97 253.5t243 103.5q93 0 168.5 -44t120.5 -120l-88 -43q-32 52 -84 81.5t-117 29.5q-107 0 -174.5 -75t-67.5 -186q0 -110 67.5 -185.5t174.5 -75.5zM322 348
q0 25 17.5 43t42.5 18t43 -18t18 -43t-18 -42.5t-43 -17.5t-42.5 17.5t-17.5 42.5z" />
    <glyph glyph-name="D" unicode="D" horiz-adv-x="674" 
d="M272 700q168 0 267.5 -97.5t99.5 -252.5t-100 -252.5t-267 -97.5h-207v338h95v-242h111q123 0 196.5 68.5t73.5 185.5t-72 186t-197 69h-207v95h207z" />
    <glyph glyph-name="E" unicode="E" horiz-adv-x="574" 
d="M65 96h465v-96h-465v96zM493 397v-93h-428v93h428zM524 700v-95h-459v95h459z" />
    <glyph glyph-name="F" unicode="F" horiz-adv-x="559" 
d="M65 700h459v-95h-459v95zM65 397h393v-93h-297v-304h-96v397z" />
    <glyph glyph-name="G" unicode="G" horiz-adv-x="722" 
d="M572 393h95v-291q-39 -53 -119 -86.5t-179 -22.5q-148 15 -238.5 112t-90.5 244q0 149 92 248t239 109q80 5 152.5 -17t123.5 -63l-49 -72q-34 27 -93 44t-125 12q-103 -7 -172.5 -80.5t-69.5 -180.5q0 -106 68 -177t172 -84q123 -15 194 48v257z" />
    <glyph glyph-name="H" unicode="H" horiz-adv-x="667" 
d="M65 0v188h95v-188h-95zM506 700h96v-188h-96v188zM160 397h442v-397h-96v304h-441v396h95v-303z" />
    <glyph glyph-name="I" unicode="I" horiz-adv-x="225" 
d="M65 489h95v-489h-95v489zM65 700h95v-113h-95v113z" />
    <glyph glyph-name="J" unicode="J" horiz-adv-x="420" 
d="M260 489h95v-289q0 -102 -45.5 -154.5t-131.5 -52.5q-51 0 -96 20.5t-67 50.5l66 64q40 -40 92 -40q41 0 64 27.5t23 79.5v294zM260 700h95v-113h-95v113z" />
    <glyph glyph-name="K" unicode="K" horiz-adv-x="611" 
d="M475 0l-214 305h-100v-305h-96v700h96v-303h84l208 303h122l-237 -337l258 -363h-121z" />
    <glyph glyph-name="L" unicode="L" horiz-adv-x="516" 
d="M161 700v-113h-96v113h96zM161 489v-308l-96 -95v403h96zM223 96h263v-96h-360z" />
    <glyph glyph-name="M" unicode="M" horiz-adv-x="816" 
d="M742 706h9v-706h-95v453l-244 -292h-9l-243 292v-453h-95v706h8l335 -396z" />
    <glyph glyph-name="N" unicode="N" horiz-adv-x="660" 
d="M499 700h96v-707h-9l-426 467v-460h-95v706h8l426 -471v465z" />
    <glyph glyph-name="O" unicode="O" 
d="M379 706q147 0 243.5 -103.5t96.5 -253.5t-96.5 -253t-243.5 -103q-146 0 -242.5 103.5t-96.5 253.5q0 149 96.5 252.5t242.5 103.5zM379 88q107 0 174.5 75.5t67.5 185.5q0 111 -67.5 186.5t-174.5 75.5q-106 0 -173.5 -75t-67.5 -186t67.5 -186.5t173.5 -75.5zM379 410
q25 0 43 -18t18 -43t-18 -42.5t-43 -17.5t-42.5 17.5t-17.5 42.5t17.5 43t42.5 18z" />
    <glyph glyph-name="P" unicode="P" horiz-adv-x="591" 
d="M327 700q104 0 166.5 -64.5t62.5 -161.5q0 -96 -63 -160.5t-166 -64.5h-167v-249h-95v344h262q60 0 95 38t35 92q0 55 -34.5 93t-95.5 38h-262v95h262z" />
    <glyph glyph-name="Q" unicode="Q" horiz-adv-x="760" 
d="M720 349q0 -137 -83 -237.5t-213 -116.5v-145h-96v146q-127 19 -207.5 118.5t-80.5 235.5q0 150 96.5 253t243.5 103q146 0 243 -103.5t97 -253.5zM380 88q106 0 173.5 75.5t67.5 185.5q0 111 -67.5 186.5t-173.5 75.5q-107 0 -174 -75t-67 -186t67 -186.5t174 -75.5z
" />
    <glyph glyph-name="R" unicode="R" horiz-adv-x="606" 
d="M467 0l-141 249h-165v-249h-96v344h262q60 0 95.5 38t35.5 92q0 55 -35.5 93t-95.5 38h-262v95h262q104 0 166.5 -65t62.5 -161q0 -70 -34.5 -125t-96.5 -81l151 -268h-109z" />
    <glyph glyph-name="S" unicode="S" horiz-adv-x="605" 
d="M35 149l91 38q9 -21 31 -42t46 -33l-42 -88q-44 20 -77 53.5t-49 71.5zM316 403q125 -35 187 -79.5t62 -130.5t-66 -144.5t-182 -58.5q-25 0 -48 3l45 94q64 -1 107 28t43 75q0 44 -41 68t-141 53q-119 34 -175 77t-53 127q2 86 67.5 139t173.5 53q49 0 89 -12l-54 -86
q-18 2 -32 2q-72 0 -107 -29t-35 -70q0 -39 36 -61.5t124 -47.5z" />
    <glyph glyph-name="T" unicode="T" horiz-adv-x="567" 
d="M236 0v469h95v-469h-95zM30 700h507v-95h-507v95z" />
    <glyph glyph-name="U" unicode="U" horiz-adv-x="650" 
d="M495 700h95v-344l-95 41v303zM325 88q77 0 123 46t47 145l93 -41q-12 -118 -83.5 -181.5t-179.5 -63.5q-118 0 -191.5 75.5t-73.5 213.5v207h96v-204q0 -102 45.5 -149.5t123.5 -47.5zM156 700v-113h-96v113h96z" />
    <glyph glyph-name="V" unicode="V" horiz-adv-x="648" 
d="M526 700h102l-258 -700h-93l-3 8zM20 700h102l134 -370l-50 -137z" />
    <glyph glyph-name="W" unicode="W" horiz-adv-x="1022" 
d="M584 700h101l-122 -291l114 -266l224 557h101l-279 -700h-93l-119 284l-119 -284h-93l-279 700h102l223 -557l114 265l-122 292h102l72 -170z" />
    <glyph glyph-name="X" unicode="X" horiz-adv-x="631" 
d="M40 700h117l100 -161l-56 -92zM379 364l232 -364h-117l-227 364l207 336h118zM20 0l176 276l58 -90l-117 -186h-117z" />
    <glyph glyph-name="Y" unicode="Y" horiz-adv-x="610" 
d="M257 0v145h96v-145h-96zM481 700h109l-236 -440h-98l-236 440h109l176 -332z" />
    <glyph glyph-name="Z" unicode="Z" horiz-adv-x="604" 
d="M304 700l-76 -95h-163v95h239zM153 96h416v-96h-534v96l408 509h117z" />
    <glyph glyph-name="bracketleft" unicode="[" horiz-adv-x="346" 
d="M296 667h-120v-737h120v-84h-216v905h216v-84z" />
    <glyph glyph-name="backslash" unicode="\" horiz-adv-x="402" 
d="M101 751l301 -905h-92l-300 905h91z" />
    <glyph glyph-name="bracketright" unicode="]" horiz-adv-x="346" 
d="M50 751h216v-905h-216v84h121v737h-121v84z" />
    <glyph glyph-name="asciicircum" unicode="^" horiz-adv-x="454" 
d="M424 422h-95l-102 189l-102 -189h-95l149 278h95z" />
    <glyph glyph-name="underscore" unicode="_" horiz-adv-x="573" 
d="M20 -22h533v-84h-533v84z" />
    <glyph glyph-name="grave" unicode="`" horiz-adv-x="271" 
d="M145 700l76 -136h-70l-101 136h95z" />
    <glyph glyph-name="a" unicode="a" horiz-adv-x="464" 
d="M241 490q81 0 129.5 -43t48.5 -134v-313h-94v57q-48 -56 -134 -64q-81 -7 -126.5 37t-38.5 107q8 66 49.5 96.5t126.5 52.5q12 3 35 8t33.5 8t24 8.5t20 12.5t7.5 17q5 33 -24 50.5t-64 14.5q-82 -3 -102 -76l-86 18q11 55 60.5 99t134.5 44zM325 206v21
q-43 -12 -107 -28q-39 -10 -61 -27t-25.5 -29.5t-1.5 -25.5q6 -43 74 -38q42 3 81.5 38.5t39.5 88.5z" />
    <glyph glyph-name="b" unicode="b" horiz-adv-x="541" 
d="M287 489q103 0 163.5 -71t60.5 -177q0 -105 -61 -176.5t-163 -71.5q-90 0 -147 59v-52h-95v700h95v-270q57 59 147 59zM276 88q63 0 97 43.5t34 109.5t-34 109.5t-97 43.5t-97 -43.5t-34 -109.5t34 -109.5t97 -43.5z" />
    <glyph glyph-name="c" unicode="c" horiz-adv-x="483" 
d="M265 88q73 0 110 60l88 -42q-30 -52 -81.5 -82.5t-116.5 -30.5q-103 0 -169 72t-66 176t66 176t169 72q65 0 116.5 -30.5t81.5 -82.5l-88 -42q-37 60 -110 60q-63 0 -98.5 -44t-35.5 -109t35.5 -109t98.5 -44z" />
    <glyph glyph-name="d" unicode="d" horiz-adv-x="542" 
d="M396 700h96v-700h-96v52q-56 -59 -147 -59q-102 0 -163 71.5t-61 176.5t61 176.5t163 71.5q91 0 147 -59v270zM261 88q62 0 96.5 44t34.5 109q0 66 -34 109.5t-97 43.5t-97.5 -43.5t-34.5 -109.5t34.5 -109.5t97.5 -43.5z" />
    <glyph glyph-name="e" unicode="e" horiz-adv-x="507" 
d="M473 193h-336q11 -47 44 -76t84 -29q73 0 110 60l87 -42q-30 -53 -81 -83t-116 -30q-103 0 -169 72t-66 176t64.5 176t167.5 72q101 0 158 -70.5t57 -177.5q0 -27 -4 -48zM262 394q-52 0 -84.5 -30.5t-42.5 -80.5h244q-18 111 -117 111z" />
    <glyph glyph-name="f" unicode="f" horiz-adv-x="291" 
d="M161 700q37 11 84.5 0t75.5 -38l-54 -70q-14 12 -36 17.5t-35 -0.5q-29 -12 -29 -66v-61h87v-87h-87v-395h-96v395h-56v87h56v62q0 128 90 156z" />
    <glyph glyph-name="g" unicode="g" horiz-adv-x="491" 
d="M481 442q-56 1 -89 -36q23 -37 23 -85q0 -75 -53 -121.5t-135 -46.5q-19 0 -28 1q-14 -8 -20.5 -19t0.5 -21q12 -14 76 -14q117 0 169.5 -29t54.5 -93q2 -77 -64.5 -126t-168.5 -47q-161 4 -246 91l53 64q66 -62 188 -67q60 -2 100 18.5t42 52.5q1 28 -29 37t-108 12
q-104 5 -140 36q-16 14 -22 33.5t3.5 45.5t36.5 49q-85 46 -85 144q0 75 53 121.5t135 46.5q74 0 127 -40q50 71 127 71v-78zM227 237q41 0 68 22.5t27 61.5t-27 61.5t-68 22.5t-68.5 -22.5t-27.5 -61.5t27.5 -61.5t68.5 -22.5z" />
    <glyph glyph-name="h" unicode="h" horiz-adv-x="488" 
d="M264 489q86 0 132.5 -56.5t46.5 -160.5v-272h-95v263q0 67 -28 99t-73 32q-48 0 -77 -30.5t-29 -94.5v-269h-96v700h96v-264q50 53 123 53z" />
    <glyph glyph-name="i" unicode="i" horiz-adv-x="206" 
d="M53 0v482h95v-482h-95zM101 556q-23 0 -39.5 16.5t-16.5 39.5t16.5 39t39.5 16t39 -16.5t16 -38.5q0 -23 -16 -39.5t-39 -16.5z" />
    <glyph glyph-name="j" unicode="j" horiz-adv-x="219" 
d="M65 482h96v-542q0 -131 -88 -159q-66 -21 -128 20l34 76q33 -14 57 -5q29 12 29 66v544zM118 556q-23 0 -39 16.5t-16 39.5q0 22 16.5 38.5t38.5 16.5q23 0 39.5 -16t16.5 -39t-16.5 -39.5t-39.5 -16.5z" />
    <glyph glyph-name="k" unicode="k" horiz-adv-x="469" 
d="M341 0l-131 196h-69v-196h-96v700h96v-414h58l134 196h113l-162 -231l170 -251h-113z" />
    <glyph glyph-name="l" unicode="l" horiz-adv-x="280" 
d="M226 100l49 -67q-28 -27 -67.5 -36.5t-76.5 1.5q-86 24 -86 157v595h96v-594q0 -54 29 -66q30 -13 56 10z" />
    <glyph glyph-name="m" unicode="m" horiz-adv-x="783" 
d="M554 489q86 0 132.5 -56.5t46.5 -160.5v-272h-96v263q0 67 -26.5 99t-70.5 32q-101 0 -101 -125v-269h-95v263q0 67 -28 99t-73 32q-98 0 -98 -125v-269h-95v482h95v-38q47 45 113 45q102 0 149 -79q52 79 147 79z" />
    <glyph glyph-name="n" unicode="n" horiz-adv-x="497" 
d="M269 489q85 0 131.5 -56.5t46.5 -160.5v-272h-95v263q0 67 -28 99t-73 32q-48 0 -77 -30.5t-29 -94.5v-269h-95v482h95v-46q51 53 124 53z" />
    <glyph glyph-name="o" unicode="o" horiz-adv-x="530" 
d="M265 489q103 0 169 -72t66 -176t-66 -176t-169 -72t-169 72t-66 176t66 176t169 72zM265 88q63 0 98.5 44t35.5 109q0 66 -35.5 109.5t-98.5 43.5t-98.5 -44t-35.5 -109t35.5 -109t98.5 -44z" />
    <glyph glyph-name="p" unicode="p" horiz-adv-x="542" 
d="M288 489q102 0 163 -71.5t61 -176.5t-61 -176.5t-163 -71.5q-91 0 -147 59v-270h-96v700h96v-52q56 59 147 59zM277 88q63 0 97 43.5t34 109.5q0 65 -34.5 109t-96.5 44q-63 0 -97.5 -43.5t-34.5 -109.5t34.5 -109.5t97.5 -43.5z" />
    <glyph glyph-name="q" unicode="q" horiz-adv-x="542" 
d="M396 482h96v-700h-96v270q-56 -59 -147 -59q-102 0 -163 71.5t-61 176.5q0 106 61 177.5t163 71.5q90 0 147 -60v52zM260 88q63 0 97.5 43.5t34.5 109.5t-34.5 109.5t-97.5 43.5q-62 0 -96.5 -44t-34.5 -109q0 -66 34 -109.5t97 -43.5z" />
    <glyph glyph-name="r" unicode="r" horiz-adv-x="307" 
d="M264 490q14 0 38 -4l-18 -99q-17 7 -38 7q-47 0 -76.5 -30.5t-29.5 -94.5v-269h-95v482h95v-45q51 53 124 53z" />
    <glyph glyph-name="s" unicode="s" horiz-adv-x="420" 
d="M394 154q6 -70 -44 -116.5t-133 -46.5q-78 0 -130.5 35t-71.5 88l90 32q22 -60 108 -60q45 0 66.5 17.5t18.5 40.5q-2 17 -26.5 29t-80.5 23q-75 15 -114 42t-48 79q-11 64 33.5 118t137.5 54q43 0 78 -13.5t55 -34t30.5 -37.5t14.5 -31l-90 -31q-8 24 -33.5 39t-54.5 15
q-42 0 -59 -16t-17 -35q0 -44 98 -62q86 -16 127 -45t45 -84z" />
    <glyph glyph-name="t" unicode="t" horiz-adv-x="338" 
d="M271 107l52 -73q-27 -27 -73.5 -37t-82.5 2q-87 28 -87 156v241h-65v86h65v101l95 26v-127h99v-86h-99v-237q0 -58 30 -69q15 -6 34.5 -0.5t31.5 17.5z" />
    <glyph glyph-name="u" unicode="u" horiz-adv-x="487" 
d="M341 482h96v-272q0 -102 -54 -159.5t-142 -57.5t-142 57.5t-54 159.5v272h95v-263q0 -67 28 -99t73 -32t72.5 32t27.5 99v263z" />
    <glyph glyph-name="v" unicode="v" horiz-adv-x="487" 
d="M370 482h102l-183 -482h-91l-183 482h102l126 -333z" />
    <glyph glyph-name="w" unicode="w" horiz-adv-x="721" 
d="M611 482h100l-155 -482h-84l-111 327l-112 -327h-83l-156 482h100l102 -314l107 314h83l108 -314z" />
    <glyph glyph-name="x" unicode="x" horiz-adv-x="479" 
d="M464 0h-117l-108 174l-107 -174h-117l159 251l-146 231h117l94 -154l95 154h117l-147 -231z" />
    <glyph glyph-name="y" unicode="y" horiz-adv-x="467" 
d="M452 482l-166 -464q-10 -27 -18 -46.5t-18.5 -41.5t-20 -38t-21.5 -32.5t-24.5 -27t-28 -19t-32 -12.5t-37 -4t-43.5 5l16 95q43 -9 67 13t57 105l-168 467h102l117 -333l116 333h102z" />
    <glyph glyph-name="z" unicode="z" horiz-adv-x="432" 
d="M156 96h246v-96h-372v96l238 291h-224v95h349v-95z" />
    <glyph glyph-name="braceleft" unicode="{" horiz-adv-x="347" 
d="M199 555q0 -194 -61 -247q61 -52 61 -247q0 -75 25 -97.5t83 -22.5v-92q-43 0 -75 7.5t-61 28.5t-44 63t-15 105q0 143 -6 173q-11 52 -46 53v58q36 0 44 42t8 149v36q0 63 15 105t44 63t61 28.5t75 7.5v-92q-58 0 -83 -23t-25 -98z" />
    <glyph glyph-name="bar" unicode="|" horiz-adv-x="256" 
d="M80 751h96v-905h-96v905z" />
    <glyph glyph-name="braceright" unicode="}" horiz-adv-x="347" 
d="M148 555q0 75 -25 98t-83 23v92q43 0 74.5 -7.5t60.5 -28.5t44 -63t15 -105v-35q0 -56 0.5 -81.5t5.5 -56.5t16 -42.5t31 -11.5v-58q-37 0 -45 -42t-8 -149v-35q0 -63 -15 -105t-44 -63t-60.5 -28.5t-74.5 -7.5v92q58 0 83 22.5t25 97.5q0 195 61 247q-61 53 -61 247z
" />
    <glyph glyph-name="asciitilde" unicode="~" horiz-adv-x="525" 
d="M406 359l79 -28q-61 -147 -247 -62q-39 18 -64 19t-38 -8t-30 -32l-76 38q32 44 62 65t76 20.5t109 -28.5q64 -25 89.5 -19.5t39.5 35.5z" />
    <glyph glyph-name="exclamdown" unicode="&#xa1;" horiz-adv-x="211" 
d="M72 316h66l21 -526h-107zM105 396q-23 0 -39 16.5t-16 39.5q0 22 16 38.5t39 16.5t39.5 -16t16.5 -39t-16.5 -39.5t-39.5 -16.5z" />
    <glyph glyph-name="cent" unicode="&#xa2;" horiz-adv-x="513" 
d="M275 88q73 0 110 60l88 -42q-55 -95 -161 -111v-96h-96v101q-80 20 -128 86.5t-48 154.5t48 154.5t128 86.5v101h96v-96q106 -16 161 -111l-88 -42q-37 60 -110 60q-63 0 -98 -44t-35 -109t35 -109t98 -44z" />
    <glyph glyph-name="sterling" unicode="&#xa3;" horiz-adv-x="575" 
d="M40 95h495v-95h-495v95zM411 349v-84h-348v84h77v111q0 70 17 120t46 76.5t61.5 38t69.5 11.5q63 0 109 -39.5t68 -90.5l-85 -38q-33 73 -92 73q-98 0 -98 -159v-103h175z" />
    <glyph glyph-name="currency" unicode="&#xa4;" horiz-adv-x="638" 
d="M535 357q0 -63 -36 -119l89 -88l-59 -59l-89 88q-55 -38 -121 -38q-67 0 -121 38l-89 -88l-59 59l89 88q-36 53 -36 119t36 119l-89 88l59 60l89 -88q55 37 121 37q65 0 121 -37l89 88l59 -60l-89 -88q36 -56 36 -119zM190 357q0 -53 38 -91t91 -38t91 38t38 91t-38 91
t-91 38t-91 -38t-38 -91z" />
    <glyph glyph-name="yen" unicode="&#xa5;" horiz-adv-x="651" 
d="M611 700l-205 -384h126v-84h-411v84h125l-206 384h110l176 -332l176 332h109zM121 190h411v-84h-158v-106h-96v106h-157v84z" />
    <glyph glyph-name="brokenbar" unicode="&#xa6;" horiz-adv-x="255" 
d="M80 751h95v-345h-95v345zM80 -154v345h95v-345h-95z" />
    <glyph glyph-name="section" unicode="&#xa7;" horiz-adv-x="557" 
d="M504 236q-11 -82 -86 -124q50 -53 44 -128q-5 -75 -55.5 -123t-126.5 -48q-72 0 -121 41.5t-64 103.5l83 23q8 -35 34.5 -58t67.5 -23q43 0 68.5 26.5t27.5 60.5q1 47 -29.5 72.5t-109.5 61.5q-117 54 -155 108.5t-30 118.5q11 80 86 124q-49 51 -44 128q5 75 56 123
t126 48q73 0 122 -42t64 -103l-83 -23q-8 34 -34.5 57.5t-68.5 23.5q-43 0 -68.5 -27t-26.5 -61q-1 -24 6.5 -42.5t29.5 -35t41.5 -27t60.5 -29.5q117 -54 155.5 -108.5t29.5 -117.5zM415 234q25 85 -128 148q-41 16 -74 35q-58 -22 -72 -67q-24 -85 129 -148q51 -22 74 -35
q59 22 71 67z" />
    <glyph glyph-name="dieresis" unicode="&#xa8;" horiz-adv-x="340" 
d="M89 678q20 0 34.5 -15t14.5 -35t-14.5 -34.5t-34.5 -14.5t-34.5 14.5t-14.5 34.5t14.5 35t34.5 15zM251 678q20 0 34.5 -15t14.5 -35t-14.5 -34.5t-34.5 -14.5q-21 0 -35.5 14.5t-14.5 34.5t14.5 35t35.5 15z" />
    <glyph glyph-name="copyright" unicode="&#xa9;" horiz-adv-x="826" 
d="M419 470q-49 0 -76.5 -34t-27.5 -85q0 -50 27.5 -84t76.5 -34q56 0 86 46l67 -33q-50 -87 -153 -87q-80 0 -131.5 56t-51.5 136q0 81 51.5 137t131.5 56q103 0 153 -88l-67 -32q-30 46 -86 46zM413 712q150 0 256.5 -106t106.5 -257q0 -150 -106.5 -256.5t-256.5 -106.5
t-256.5 106.5t-106.5 256.5q0 151 106.5 257t256.5 106zM413 64q118 0 201.5 83.5t83.5 201.5t-83.5 201.5t-201.5 83.5t-201.5 -83.5t-83.5 -201.5t83.5 -201.5t201.5 -83.5z" />
    <glyph glyph-name="guillemotleft" unicode="&#xab;" horiz-adv-x="496" 
d="M265 425l-112 -157l112 -157h-103l-112 157l112 157h103zM446 425l-111 -157l111 -157h-103l-111 157l111 157h103z" />
    <glyph glyph-name="registered" unicode="&#xae;" horiz-adv-x="826" 
d="M574 419q0 -37 -19.5 -66t-54.5 -43l80 -140h-84l-74 130h-64v-130h-73v368h160q55 0 92 -34t37 -85zM358 465v-93h85q25 0 40 13t15 34t-15 33.5t-38 12.5h-87zM413 712q150 0 256.5 -106t106.5 -257q0 -150 -106.5 -256.5t-256.5 -106.5t-256.5 106.5t-106.5 256.5
q0 151 106.5 257t256.5 106zM413 64q118 0 201.5 83.5t83.5 201.5t-83.5 201.5t-201.5 83.5t-201.5 -83.5t-83.5 -201.5t83.5 -201.5t201.5 -83.5z" />
    <glyph glyph-name="macron" unicode="&#xaf;" horiz-adv-x="340" 
d="M40 673h260v-84h-260v84z" />
    <glyph glyph-name="degree" unicode="&#xb0;" horiz-adv-x="367" 
d="M184 707q59 0 101 -42.5t42 -101.5t-42 -101t-101 -42q-60 0 -102 42t-42 101t42 101.5t102 42.5zM184 498q27 0 46 19t19 46t-19 46.5t-46 19.5t-46.5 -19.5t-19.5 -46.5t19.5 -46t46.5 -19z" />
    <glyph glyph-name="plusminus" unicode="&#xb1;" horiz-adv-x="508" 
d="M296 423h152v-83h-152v-152h-84v152h-152v83h152v152h84v-152zM60 45v84h388v-84h-388z" />
    <glyph glyph-name="acute" unicode="&#xb4;" horiz-adv-x="251" 
d="M116 700h95l-101 -136h-70z" />
    <glyph glyph-name="paragraph" unicode="&#xb6;" horiz-adv-x="583" 
d="M533 700v-84h-48v-770h-95v770h-81v-770h-96v528q-76 1 -124.5 43.5t-48.5 119.5q0 75 52 118.5t121 44.5h320z" />
    <glyph glyph-name="cedilla" unicode="&#xb8;" horiz-adv-x="262" 
d="M134 -50q40 4 64 -18.5t24 -53.5q0 -22 -12.5 -43.5t-32.5 -30.5q-28 -14 -66 -9.5t-71 26.5l27 46q26 -19 54 -20.5t37 13.5q9 11 5.5 25.5t-17.5 18.5q-23 5 -41 -11l-48 30l40 79h63z" />
    <glyph glyph-name="guillemotright" unicode="&#xbb;" horiz-adv-x="497" 
d="M335 425l112 -157l-112 -157h-103l112 157l-112 157h103zM153 425l112 -157l-112 -157h-103l112 157l-112 157h103z" />
    <glyph glyph-name="questiondown" unicode="&#xbf;" horiz-adv-x="434" 
d="M324 -20l90 -21q-14 -74 -60.5 -124.5t-128.5 -50.5q-43 0 -80 15t-65 45t-36.5 75.5t6.5 106.5q17 66 92 151q26 30 38.5 46t25.5 42.5t14 50.5h90q-1 -41 -17.5 -80.5t-33 -62t-45.5 -56.5q-57 -64 -69 -112q-15 -61 9 -93t70 -33q41 -1 66.5 29.5t33.5 71.5zM263 396
q-23 0 -39 16.5t-16 39.5t16 39t39 16t39 -16t16 -39t-16 -39.5t-39 -16.5z" />
    <glyph glyph-name="Agrave" unicode="&#xc0;" horiz-adv-x="636" 
d="M364 700l252 -700h-105l-193 557l-193 -557h-105l251 700h93zM268 900l76 -136h-70l-101 136h95z" />
    <glyph glyph-name="Aacute" unicode="&#xc1;" horiz-adv-x="636" 
d="M364 700l252 -700h-105l-193 557l-193 -557h-105l251 700h93zM369 900h95l-101 -136h-70z" />
    <glyph glyph-name="Acircumflex" unicode="&#xc2;" horiz-adv-x="636" 
d="M364 700l252 -700h-105l-193 557l-193 -557h-105l251 700h93zM362 900l112 -136h-101l-54 70l-55 -70h-100l111 136h87z" />
    <glyph glyph-name="Atilde" unicode="&#xc3;" horiz-adv-x="636" 
d="M364 700l252 -700h-105l-193 557l-193 -557h-105l251 700h93zM427 902l79 -28q-57 -152 -195 -75q-33 18 -52 20t-29 -7t-27 -35l-75 40q39 74 91 87.5t112 -22.5q29 -16 44.5 -20t29 4.5t22.5 35.5z" />
    <glyph glyph-name="Adieresis" unicode="&#xc4;" horiz-adv-x="636" 
d="M364 700l252 -700h-105l-193 557l-193 -557h-105l251 700h93zM237 878q20 0 34.5 -15t14.5 -35t-14.5 -34.5t-34.5 -14.5t-34.5 14.5t-14.5 34.5t14.5 35t34.5 15zM399 878q20 0 34.5 -15t14.5 -35t-14.5 -34.5t-34.5 -14.5q-21 0 -35.5 14.5t-14.5 34.5t14.5 35t35.5 15
z" />
    <glyph glyph-name="Aring" unicode="&#xc5;" horiz-adv-x="636" 
d="M364 700l252 -700h-105l-193 557l-193 -557h-105l251 700h93zM318 975q46 0 78 -32t32 -78t-32 -78t-78 -32q-45 0 -77.5 32t-32.5 78t32.5 78t77.5 32zM318 822q18 0 31 12.5t13 30.5t-13 30.5t-31 12.5t-30.5 -12.5t-12.5 -30.5t12.5 -30.5t30.5 -12.5z" />
    <glyph glyph-name="AE" unicode="&#xc6;" horiz-adv-x="989" 
d="M575 96h370v-96h-465v193h-251l-101 -193h-108l367 700h552v-95h-364v-208h333v-93h-333v-208zM277 285h203v320h-36z" />
    <glyph glyph-name="Ccedilla" unicode="&#xc7;" horiz-adv-x="704" 
d="M381 88q132 0 201 112l87 -44q-42 -71 -112 -114.5t-157 -48.5l-22 -44q39 4 63 -18t24 -53q0 -22 -12.5 -43.5t-32.5 -30.5q-28 -14 -66 -9.5t-71 26.5l27 46q26 -19 53.5 -20t37.5 13q10 10 6.5 24.5t-18.5 18.5q-20 6 -40 -10l-48 30l37 72q-131 16 -214.5 116
t-83.5 238q0 150 97 253.5t244 103.5q93 0 168.5 -44t119.5 -120l-87 -43q-70 111 -201 111q-107 0 -174.5 -75t-67.5 -186q0 -110 67.5 -185.5t174.5 -75.5zM322 348q0 25 18 43t43 18t42.5 -18t17.5 -43t-17.5 -42.5t-42.5 -17.5t-43 17.5t-18 42.5z" />
    <glyph glyph-name="Egrave" unicode="&#xc8;" horiz-adv-x="569" 
d="M65 96h465v-96h-465v96zM493 397v-93h-428v93h428zM524 700v-95h-459v95h459zM267 900l76 -136h-70l-101 136h95z" />
    <glyph glyph-name="Eacute" unicode="&#xc9;" horiz-adv-x="569" 
d="M65 96h465v-96h-465v96zM493 397v-93h-428v93h428zM524 700v-95h-459v95h459zM318 900h95l-101 -136h-70z" />
    <glyph glyph-name="Ecircumflex" unicode="&#xca;" horiz-adv-x="569" 
d="M65 96h465v-96h-465v96zM493 397v-93h-428v93h428zM524 700v-95h-459v95h459zM341 900l112 -136h-101l-54 70l-55 -70h-100l111 136h87z" />
    <glyph glyph-name="Edieresis" unicode="&#xcb;" horiz-adv-x="569" 
d="M65 96h465v-96h-465v96zM493 397v-93h-428v93h428zM524 700v-95h-459v95h459zM216 878q20 0 34.5 -15t14.5 -35t-14.5 -34.5t-34.5 -14.5t-34.5 14.5t-14.5 34.5t14.5 35t34.5 15zM378 878q20 0 34.5 -15t14.5 -35t-14.5 -34.5t-34.5 -14.5q-21 0 -35.5 14.5t-14.5 34.5
t14.5 35t35.5 15z" />
    <glyph glyph-name="Igrave" unicode="&#xcc;" horiz-adv-x="225" 
d="M65 489h95v-489h-95v489zM65 700h95v-113h-95v113zM72 900l76 -136h-70l-101 136h95z" />
    <glyph glyph-name="Iacute" unicode="&#xcd;" horiz-adv-x="225" 
d="M65 489h95v-489h-95v489zM65 700h95v-113h-95v113zM153 900h95l-101 -136h-70z" />
    <glyph glyph-name="Icircumflex" unicode="&#xce;" horiz-adv-x="220" 
d="M61 489h95v-489h-95v489zM61 700h95v-113h-95v113zM153 900l112 -136h-101l-54 70l-55 -70h-100l111 136h87z" />
    <glyph glyph-name="Idieresis" unicode="&#xcf;" horiz-adv-x="225" 
d="M66 489h95v-489h-95v489zM66 700h95v-113h-95v113zM33 878q20 0 34.5 -15t14.5 -35t-14.5 -34.5t-34.5 -14.5t-34.5 14.5t-14.5 34.5t14.5 35t34.5 15zM195 878q20 0 34.5 -15t14.5 -35t-14.5 -34.5t-34.5 -14.5q-21 0 -35.5 14.5t-14.5 34.5t14.5 35t35.5 15z" />
    <glyph glyph-name="Eth" unicode="&#xd0;" horiz-adv-x="714" 
d="M15 392h331v-84h-146v-212h111q123 0 196.5 68.5t73.5 185.5t-72 186t-197 69h-207v95h207q168 0 267.5 -97.5t99.5 -252.5t-100 -252.5t-267 -97.5h-207v308h-90v84z" />
    <glyph glyph-name="Ntilde" unicode="&#xd1;" horiz-adv-x="660" 
d="M499 700h96v-707h-9l-426 467v-460h-95v706h8l426 -471v465zM449 902l79 -28q-57 -152 -195 -75q-33 18 -52 20t-29 -7t-27 -35l-75 40q39 74 91 87.5t112 -22.5q29 -16 44.5 -20t29 4.5t22.5 35.5z" />
    <glyph glyph-name="Ograve" unicode="&#xd2;" 
d="M379 706q147 0 243.5 -103.5t96.5 -253.5t-96.5 -253t-243.5 -103q-146 0 -242.5 103.5t-96.5 253.5q0 149 96.5 252.5t242.5 103.5zM379 88q107 0 174.5 75.5t67.5 185.5q0 111 -67.5 186.5t-174.5 75.5q-106 0 -173.5 -75t-67.5 -186t67.5 -186.5t173.5 -75.5zM379 410
q25 0 43 -18t18 -43t-18 -42.5t-43 -17.5t-42.5 17.5t-17.5 42.5t17.5 43t42.5 18zM339 900l76 -136h-70l-101 136h95z" />
    <glyph glyph-name="Oacute" unicode="&#xd3;" 
d="M379 706q147 0 243.5 -103.5t96.5 -253.5t-96.5 -253t-243.5 -103q-146 0 -242.5 103.5t-96.5 253.5q0 149 96.5 252.5t242.5 103.5zM379 88q107 0 174.5 75.5t67.5 185.5q0 111 -67.5 186.5t-174.5 75.5q-106 0 -173.5 -75t-67.5 -186t67.5 -186.5t173.5 -75.5zM379 410
q25 0 43 -18t18 -43t-18 -42.5t-43 -17.5t-42.5 17.5t-17.5 42.5t17.5 43t42.5 18zM420 900h95l-101 -136h-70z" />
    <glyph glyph-name="Ocircumflex" unicode="&#xd4;" 
d="M379 706q147 0 243.5 -103.5t96.5 -253.5t-96.5 -253t-243.5 -103q-146 0 -242.5 103.5t-96.5 253.5q0 149 96.5 252.5t242.5 103.5zM379 88q107 0 174.5 75.5t67.5 185.5q0 111 -67.5 186.5t-174.5 75.5q-106 0 -173.5 -75t-67.5 -186t67.5 -186.5t173.5 -75.5zM379 410
q25 0 43 -18t18 -43t-18 -42.5t-43 -17.5t-42.5 17.5t-17.5 42.5t17.5 43t42.5 18zM424 900l112 -136h-101l-54 70l-55 -70h-100l111 136h87z" />
    <glyph glyph-name="Otilde" unicode="&#xd5;" 
d="M379 706q147 0 243.5 -103.5t96.5 -253.5t-96.5 -253t-243.5 -103q-146 0 -242.5 103.5t-96.5 253.5q0 149 96.5 252.5t242.5 103.5zM379 88q107 0 174.5 75.5t67.5 185.5q0 111 -67.5 186.5t-174.5 75.5q-106 0 -173.5 -75t-67.5 -186t67.5 -186.5t173.5 -75.5zM379 410
q25 0 43 -18t18 -43t-18 -42.5t-43 -17.5t-42.5 17.5t-17.5 42.5t17.5 43t42.5 18zM489 902l79 -28q-57 -152 -195 -75q-33 18 -52 20t-29 -7t-27 -35l-75 40q39 74 91 87.5t112 -22.5q29 -16 44.5 -20t29 4.5t22.5 35.5z" />
    <glyph glyph-name="Odieresis" unicode="&#xd6;" 
d="M379 706q147 0 243.5 -103.5t96.5 -253.5t-96.5 -253t-243.5 -103q-146 0 -242.5 103.5t-96.5 253.5q0 149 96.5 252.5t242.5 103.5zM379 88q107 0 174.5 75.5t67.5 185.5q0 111 -67.5 186.5t-174.5 75.5q-106 0 -173.5 -75t-67.5 -186t67.5 -186.5t173.5 -75.5zM379 410
q25 0 43 -18t18 -43t-18 -42.5t-43 -17.5t-42.5 17.5t-17.5 42.5t17.5 43t42.5 18zM299 878q20 0 34.5 -15t14.5 -35t-14.5 -34.5t-34.5 -14.5t-34.5 14.5t-14.5 34.5t14.5 35t34.5 15zM461 878q20 0 34.5 -15t14.5 -35t-14.5 -34.5t-34.5 -14.5q-21 0 -35.5 14.5
t-14.5 34.5t14.5 35t35.5 15z" />
    <glyph glyph-name="multiply" unicode="&#xd7;" horiz-adv-x="481" 
d="M421 428l-121 -122l121 -121l-59 -60l-121 122l-122 -122l-59 60l121 121l-121 122l59 59l122 -121l121 121z" />
    <glyph glyph-name="Oslash" unicode="&#xd8;" 
d="M726 672l-84 -93q77 -97 77 -230q0 -149 -97 -252.5t-243 -103.5q-117 0 -204 68l-81 -89l-62 56l83 93q-76 98 -76 229q0 149 97 252.5t243 103.5q115 0 204 -68l81 90zM138 350q0 -87 44 -156l336 372q-60 44 -139 44q-106 0 -173.5 -75t-67.5 -185zM620 349
q0 88 -44 156l-337 -372q63 -45 140 -45q107 0 174 75.5t67 185.5z" />
    <glyph glyph-name="Ugrave" unicode="&#xd9;" horiz-adv-x="650" 
d="M495 700h95v-344l-95 41v303zM325 88q77 0 123 46t47 145l93 -41q-12 -118 -83.5 -181.5t-179.5 -63.5q-118 0 -191.5 75.5t-73.5 213.5v207h96v-204q0 -102 45.5 -149.5t123.5 -47.5zM156 700v-113h-96v113h96zM305 900l76 -136h-70l-101 136h95z" />
    <glyph glyph-name="Uacute" unicode="&#xda;" horiz-adv-x="650" 
d="M495 700h95v-344l-95 41v303zM325 88q77 0 123 46t47 145l93 -41q-12 -118 -83.5 -181.5t-179.5 -63.5q-118 0 -191.5 75.5t-73.5 213.5v207h96v-204q0 -102 45.5 -149.5t123.5 -47.5zM156 700v-113h-96v113h96zM366 900h95l-101 -136h-70z" />
    <glyph glyph-name="Ucircumflex" unicode="&#xdb;" horiz-adv-x="650" 
d="M495 700h95v-344l-95 41v303zM325 88q77 0 123 46t47 145l93 -41q-12 -118 -83.5 -181.5t-179.5 -63.5q-118 0 -191.5 75.5t-73.5 213.5v207h96v-204q0 -102 45.5 -149.5t123.5 -47.5zM156 700v-113h-96v113h96zM369 900l112 -136h-101l-54 70l-55 -70h-100l111 136h87z
" />
    <glyph glyph-name="Udieresis" unicode="&#xdc;" horiz-adv-x="650" 
d="M495 700h95v-344l-95 41v303zM325 88q77 0 123 46t47 145l93 -41q-12 -118 -83.5 -181.5t-179.5 -63.5q-118 0 -191.5 75.5t-73.5 213.5v207h96v-204q0 -102 45.5 -149.5t123.5 -47.5zM156 700v-113h-96v113h96zM244 878q20 0 34.5 -15t14.5 -35t-14.5 -34.5t-34.5 -14.5
t-34.5 14.5t-14.5 34.5t14.5 35t34.5 15zM406 878q20 0 34.5 -15t14.5 -35t-14.5 -34.5t-34.5 -14.5q-21 0 -35.5 14.5t-14.5 34.5t14.5 35t35.5 15z" />
    <glyph glyph-name="Yacute" unicode="&#xdd;" horiz-adv-x="610" 
d="M257 0v145h96v-145h-96zM481 700h109l-236 -440h-98l-236 440h109l176 -332zM336 900h95l-101 -136h-70z" />
    <glyph glyph-name="Thorn" unicode="&#xde;" horiz-adv-x="591" 
d="M327 567q105 0 167 -60.5t62 -156.5q0 -95 -62.5 -156t-166.5 -61h-166v-133h-96v700h96v-133h166zM327 229q61 0 95.5 34t34.5 87q0 54 -34 87.5t-96 33.5h-166v-242h166z" />
    <glyph glyph-name="germandbls" unicode="&#xdf;" horiz-adv-x="502" 
d="M348 378q48 -13 86 -61.5t38 -111.5q0 -96 -70.5 -154t-187.5 -58v87q77 0 119.5 36.5t42.5 94.5q0 116 -162 116v89q66 1 96.5 31.5t30.5 74.5q0 40 -26 65.5t-72 25.5q-102 0 -102 -143v-470h-96v476q0 64 18.5 111t49 71.5t63.5 36t70 11.5q81 0 132.5 -49t51.5 -127
q0 -51 -23 -92t-59 -60z" />
    <glyph glyph-name="agrave" unicode="&#xe0;" horiz-adv-x="464" 
d="M241 490q81 0 129.5 -43t48.5 -134v-313h-94v57q-48 -56 -134 -64q-81 -7 -126.5 37t-38.5 107q8 66 49.5 96.5t126.5 52.5q12 3 35 8t33.5 8t24 8.5t20 12.5t7.5 17q5 33 -24 50.5t-64 14.5q-82 -3 -102 -76l-86 18q11 55 60.5 99t134.5 44zM325 206v21
q-43 -12 -107 -28q-39 -10 -61 -27t-25.5 -29.5t-1.5 -25.5q6 -43 74 -38q42 3 81.5 38.5t39.5 88.5zM210 700l76 -136h-70l-101 136h95z" />
    <glyph glyph-name="aacute" unicode="&#xe1;" horiz-adv-x="464" 
d="M241 490q81 0 129.5 -43t48.5 -134v-313h-94v57q-48 -56 -134 -64q-81 -7 -126.5 37t-38.5 107q8 66 49.5 96.5t126.5 52.5q12 3 35 8t33.5 8t24 8.5t20 12.5t7.5 17q5 33 -24 50.5t-64 14.5q-82 -3 -102 -76l-86 18q11 55 60.5 99t134.5 44zM325 206v21
q-43 -12 -107 -28q-39 -10 -61 -27t-25.5 -29.5t-1.5 -25.5q6 -43 74 -38q42 3 81.5 38.5t39.5 88.5zM281 700h95l-101 -136h-70z" />
    <glyph glyph-name="acircumflex" unicode="&#xe2;" horiz-adv-x="464" 
d="M241 490q81 0 129.5 -43t48.5 -134v-313h-94v57q-48 -56 -134 -64q-81 -7 -126.5 37t-38.5 107q8 66 49.5 96.5t126.5 52.5q12 3 35 8t33.5 8t24 8.5t20 12.5t7.5 17q5 33 -24 50.5t-64 14.5q-82 -3 -102 -76l-86 18q11 55 60.5 99t134.5 44zM325 206v21
q-43 -12 -107 -28q-39 -10 -61 -27t-25.5 -29.5t-1.5 -25.5q6 -43 74 -38q42 3 81.5 38.5t39.5 88.5zM284 700l112 -136h-101l-54 70l-55 -70h-100l111 136h87z" />
    <glyph glyph-name="atilde" unicode="&#xe3;" horiz-adv-x="464" 
d="M241 490q81 0 129.5 -43t48.5 -134v-313h-94v57q-48 -56 -134 -64q-81 -7 -126.5 37t-38.5 107q8 66 49.5 96.5t126.5 52.5q12 3 35 8t33.5 8t24 8.5t20 12.5t7.5 17q5 33 -24 50.5t-64 14.5q-82 -3 -102 -76l-86 18q11 55 60.5 99t134.5 44zM325 206v21
q-43 -12 -107 -28q-39 -10 -61 -27t-25.5 -29.5t-1.5 -25.5q6 -43 74 -38q42 3 81.5 38.5t39.5 88.5zM339 702l79 -28q-57 -152 -195 -75q-33 18 -52 20t-29 -7t-27 -35l-75 40q39 74 91 87.5t112 -22.5q29 -16 44.5 -20t29 4.5t22.5 35.5z" />
    <glyph glyph-name="adieresis" unicode="&#xe4;" horiz-adv-x="464" 
d="M241 490q81 0 129.5 -43t48.5 -134v-313h-94v57q-48 -56 -134 -64q-81 -7 -126.5 37t-38.5 107q8 66 49.5 96.5t126.5 52.5q12 3 35 8t33.5 8t24 8.5t20 12.5t7.5 17q5 33 -24 50.5t-64 14.5q-82 -3 -102 -76l-86 18q11 55 60.5 99t134.5 44zM325 206v21
q-43 -12 -107 -28q-39 -10 -61 -27t-25.5 -29.5t-1.5 -25.5q6 -43 74 -38q42 3 81.5 38.5t39.5 88.5zM169 678q20 0 34.5 -15t14.5 -35t-14.5 -34.5t-34.5 -14.5t-34.5 14.5t-14.5 34.5t14.5 35t34.5 15zM331 678q20 0 34.5 -15t14.5 -35t-14.5 -34.5t-34.5 -14.5
q-21 0 -35.5 14.5t-14.5 34.5t14.5 35t35.5 15z" />
    <glyph glyph-name="aring" unicode="&#xe5;" horiz-adv-x="464" 
d="M241 490q81 0 129.5 -43t48.5 -134v-313h-94v57q-48 -56 -134 -64q-81 -7 -126.5 37t-38.5 107q8 66 49.5 96.5t126.5 52.5q12 3 35 8t33.5 8t24 8.5t20 12.5t7.5 17q5 33 -24 50.5t-64 14.5q-82 -3 -102 -76l-86 18q11 55 60.5 99t134.5 44zM325 206v21
q-43 -12 -107 -28q-39 -10 -61 -27t-25.5 -29.5t-1.5 -25.5q6 -43 74 -38q42 3 81.5 38.5t39.5 88.5zM250 775q46 0 78 -32t32 -78t-32 -78t-78 -32q-45 0 -77.5 32t-32.5 78t32.5 78t77.5 32zM250 622q18 0 31 12.5t13 30.5t-13 30.5t-31 12.5t-30.5 -12.5t-12.5 -30.5
t12.5 -30.5t30.5 -12.5z" />
    <glyph glyph-name="ae" unicode="&#xe6;" horiz-adv-x="835" 
d="M801 193h-336q11 -47 44 -76t84 -29q73 0 110 60l87 -42q-30 -53 -81 -83t-116 -30q-67 0 -123.5 34.5t-78.5 88.5q-24 -56 -78 -88.5t-122 -34.5q-81 -3 -126.5 39.5t-38.5 104.5q8 66 49.5 96.5t126.5 52.5q12 3 35 8t33.5 8t24 8.5t20 12.5t7.5 17q5 33 -24 50.5
t-64 14.5q-82 -3 -102 -76l-86 18q11 55 60.5 99t134.5 44q126 0 164 -95q66 94 185 94q101 0 158 -70.5t57 -177.5q0 -27 -4 -48zM590 394q-52 0 -84.5 -30.5t-42.5 -80.5h244q-18 111 -117 111zM325 206v21q-43 -12 -107 -28q-39 -10 -61 -27t-25.5 -29.5t-1.5 -25.5
q6 -43 74 -38q42 3 81.5 38.5t39.5 88.5z" />
    <glyph glyph-name="ccedilla" unicode="&#xe7;" horiz-adv-x="483" 
d="M265 88q73 0 110 60l88 -42q-29 -49 -75 -78.5t-104 -33.5l-23 -44q40 4 64 -18.5t24 -53.5q0 -22 -12.5 -43t-32.5 -31q-29 -14 -67 -9.5t-71 26.5l27 46q26 -19 53.5 -20t38.5 13q10 10 6 25t-19 19q-22 5 -40 -11l-48 30l38 74q-86 15 -139 83.5t-53 160.5
q0 104 66 176.5t169 72.5q65 0 116.5 -30.5t81.5 -82.5l-88 -43q-37 60 -110 60q-63 0 -98.5 -44t-35.5 -109t35.5 -109t98.5 -44z" />
    <glyph glyph-name="egrave" unicode="&#xe8;" horiz-adv-x="507" 
d="M473 193h-336q11 -47 44 -76t84 -29q73 0 110 60l87 -42q-30 -53 -81 -83t-116 -30q-103 0 -169 72t-66 176t64.5 176t167.5 72q101 0 158 -70.5t57 -177.5q0 -27 -4 -48zM262 394q-52 0 -84.5 -30.5t-42.5 -80.5h244q-18 111 -117 111zM223 700l76 -136h-70l-101 136h95
z" />
    <glyph glyph-name="eacute" unicode="&#xe9;" horiz-adv-x="507" 
d="M473 193h-336q11 -47 44 -76t84 -29q73 0 110 60l87 -42q-30 -53 -81 -83t-116 -30q-103 0 -169 72t-66 176t64.5 176t167.5 72q101 0 158 -70.5t57 -177.5q0 -27 -4 -48zM262 394q-52 0 -84.5 -30.5t-42.5 -80.5h244q-18 111 -117 111zM304 700h95l-101 -136h-70z" />
    <glyph glyph-name="ecircumflex" unicode="&#xea;" horiz-adv-x="507" 
d="M473 193h-336q11 -47 44 -76t84 -29q73 0 110 60l87 -42q-30 -53 -81 -83t-116 -30q-103 0 -169 72t-66 176t64.5 176t167.5 72q101 0 158 -70.5t57 -177.5q0 -27 -4 -48zM262 394q-52 0 -84.5 -30.5t-42.5 -80.5h244q-18 111 -117 111zM308 700l112 -136h-101l-54 70
l-55 -70h-100l111 136h87z" />
    <glyph glyph-name="edieresis" unicode="&#xeb;" horiz-adv-x="507" 
d="M473 193h-336q11 -47 44 -76t84 -29q73 0 110 60l87 -42q-30 -53 -81 -83t-116 -30q-103 0 -169 72t-66 176t64.5 176t167.5 72q101 0 158 -70.5t57 -177.5q0 -27 -4 -48zM262 394q-52 0 -84.5 -30.5t-42.5 -80.5h244q-18 111 -117 111zM183 678q20 0 34.5 -15t14.5 -35
t-14.5 -34.5t-34.5 -14.5t-34.5 14.5t-14.5 34.5t14.5 35t34.5 15zM345 678q20 0 34.5 -15t14.5 -35t-14.5 -34.5t-34.5 -14.5q-21 0 -35.5 14.5t-14.5 34.5t14.5 35t35.5 15z" />
    <glyph glyph-name="igrave" unicode="&#xec;" horiz-adv-x="206" 
d="M61 0v482h95v-482h-95zM68 700l76 -136h-70l-101 136h95z" />
    <glyph glyph-name="iacute" unicode="&#xed;" horiz-adv-x="206" 
d="M50 0v482h95v-482h-95zM138 700h95l-101 -136h-70z" />
    <glyph glyph-name="icircumflex" unicode="&#xee;" horiz-adv-x="260" 
d="M92 0v482h95v-482h-95zM184 700l112 -136h-101l-54 70l-55 -70h-100l111 136h87z" />
    <glyph glyph-name="idieresis" unicode="&#xef;" horiz-adv-x="240" 
d="M77 0v482h95v-482h-95zM44 678q20 0 34.5 -15t14.5 -35t-14.5 -34.5t-34.5 -14.5t-34.5 14.5t-14.5 34.5t14.5 35t34.5 15zM206 678q20 0 34.5 -15t14.5 -35t-14.5 -34.5t-34.5 -14.5q-21 0 -35.5 14.5t-14.5 34.5t14.5 35t35.5 15z" />
    <glyph glyph-name="eth" unicode="&#xf0;" horiz-adv-x="546" 
d="M365 681q69 -62 107.5 -152.5t42.5 -177t-18 -165t-66 -122.5q-66 -71 -167 -71q-103 0 -171 72t-68 176t65 176t168 72q90 0 151 -66q-17 110 -107 193l-81 -82l-66 65l70 71q-55 28 -113 34l13 86q92 -13 164 -54l81 82l66 -65zM264 88q62 0 98 44t36 109t-35.5 109
t-98.5 44t-98.5 -43.5t-35.5 -109.5q0 -65 35.5 -109t98.5 -44z" />
    <glyph glyph-name="ntilde" unicode="&#xf1;" horiz-adv-x="497" 
d="M269 489q85 0 131.5 -56.5t46.5 -160.5v-272h-95v263q0 67 -28 99t-73 32q-48 0 -77 -30.5t-29 -94.5v-269h-95v482h95v-46q51 53 124 53zM359 702l79 -28q-57 -152 -195 -75q-33 18 -52 20t-29 -7t-27 -35l-75 40q39 74 91 87.5t112 -22.5q29 -16 44.5 -20t29 4.5
t22.5 35.5z" />
    <glyph glyph-name="ograve" unicode="&#xf2;" horiz-adv-x="530" 
d="M265 489q103 0 169 -72t66 -176t-66 -176t-169 -72t-169 72t-66 176t66 176t169 72zM265 88q63 0 98.5 44t35.5 109q0 66 -35.5 109.5t-98.5 43.5t-98.5 -44t-35.5 -109t35.5 -109t98.5 -44zM225 700l76 -136h-70l-101 136h95z" />
    <glyph glyph-name="oacute" unicode="&#xf3;" horiz-adv-x="530" 
d="M265 489q103 0 169 -72t66 -176t-66 -176t-169 -72t-169 72t-66 176t66 176t169 72zM265 88q63 0 98.5 44t35.5 109q0 66 -35.5 109.5t-98.5 43.5t-98.5 -44t-35.5 -109t35.5 -109t98.5 -44zM306 700h95l-101 -136h-70z" />
    <glyph glyph-name="ocircumflex" unicode="&#xf4;" horiz-adv-x="530" 
d="M265 489q103 0 169 -72t66 -176t-66 -176t-169 -72t-169 72t-66 176t66 176t169 72zM265 88q63 0 98.5 44t35.5 109q0 66 -35.5 109.5t-98.5 43.5t-98.5 -44t-35.5 -109t35.5 -109t98.5 -44zM309 700l112 -136h-101l-54 70l-55 -70h-100l111 136h87z" />
    <glyph glyph-name="otilde" unicode="&#xf5;" horiz-adv-x="530" 
d="M265 489q103 0 169 -72t66 -176t-66 -176t-169 -72t-169 72t-66 176t66 176t169 72zM265 88q63 0 98.5 44t35.5 109q0 66 -35.5 109.5t-98.5 43.5t-98.5 -44t-35.5 -109t35.5 -109t98.5 -44zM375 702l79 -28q-57 -152 -195 -75q-33 18 -52 20t-29 -7t-27 -35l-75 40
q39 74 91 87.5t112 -22.5q29 -16 44.5 -20t29 4.5t22.5 35.5z" />
    <glyph glyph-name="odieresis" unicode="&#xf6;" horiz-adv-x="530" 
d="M265 489q103 0 169 -72t66 -176t-66 -176t-169 -72t-169 72t-66 176t66 176t169 72zM265 88q63 0 98.5 44t35.5 109q0 66 -35.5 109.5t-98.5 43.5t-98.5 -44t-35.5 -109t35.5 -109t98.5 -44zM184 678q20 0 34.5 -15t14.5 -35t-14.5 -34.5t-34.5 -14.5t-34.5 14.5
t-14.5 34.5t14.5 35t34.5 15zM346 678q20 0 34.5 -15t14.5 -35t-14.5 -34.5t-34.5 -14.5q-21 0 -35.5 14.5t-14.5 34.5t14.5 35t35.5 15z" />
    <glyph glyph-name="divide" unicode="&#xf7;" horiz-adv-x="508" 
d="M60 348h388v-84h-388v84zM254 183q20 0 34.5 -14.5t14.5 -34.5q0 -21 -14.5 -35.5t-34.5 -14.5q-21 0 -35.5 14.5t-14.5 35.5q0 20 14.5 34.5t35.5 14.5zM254 430q-21 0 -35.5 14.5t-14.5 34.5t14.5 35t35.5 15q20 0 34.5 -15t14.5 -35t-14.5 -34.5t-34.5 -14.5z" />
    <glyph glyph-name="oslash" unicode="&#xf8;" horiz-adv-x="540" 
d="M519 454l-58 -64q44 -66 44 -149q0 -104 -66 -176t-169 -72q-77 0 -132 40l-55 -61l-62 56l58 64q-45 65 -45 149q0 104 66 176t170 72q74 0 132 -39l54 60zM135 241q0 -38 14 -71l187 207q-28 17 -66 17q-63 0 -99 -44t-36 -109zM404 241q0 37 -13 71l-188 -207
q29 -17 67 -17q62 0 98 44t36 109z" />
    <glyph glyph-name="ugrave" unicode="&#xf9;" horiz-adv-x="493" 
d="M344 482h96v-272q0 -102 -54 -159.5t-142 -57.5t-142 57.5t-54 159.5v272h95v-263q0 -67 28 -99t73 -32t72.5 32t27.5 99v263zM224 700l76 -136h-70l-101 136h95z" />
    <glyph glyph-name="uacute" unicode="&#xfa;" horiz-adv-x="493" 
d="M344 482h96v-272q0 -102 -54 -159.5t-142 -57.5t-142 57.5t-54 159.5v272h95v-263q0 -67 28 -99t73 -32t72.5 32t27.5 99v263zM295 700h95l-101 -136h-70z" />
    <glyph glyph-name="ucircumflex" unicode="&#xfb;" horiz-adv-x="493" 
d="M344 482h96v-272q0 -102 -54 -159.5t-142 -57.5t-142 57.5t-54 159.5v272h95v-263q0 -67 28 -99t73 -32t72.5 32t27.5 99v263zM288 700l112 -136h-101l-54 70l-55 -70h-100l111 136h87z" />
    <glyph glyph-name="udieresis" unicode="&#xfc;" horiz-adv-x="493" 
d="M344 482h96v-272q0 -102 -54 -159.5t-142 -57.5t-142 57.5t-54 159.5v272h95v-263q0 -67 28 -99t73 -32t72.5 32t27.5 99v263zM163 678q20 0 34.5 -15t14.5 -35t-14.5 -34.5t-34.5 -14.5t-34.5 14.5t-14.5 34.5t14.5 35t34.5 15zM325 678q20 0 34.5 -15t14.5 -35
t-14.5 -34.5t-34.5 -14.5q-21 0 -35.5 14.5t-14.5 34.5t14.5 35t35.5 15z" />
    <glyph glyph-name="yacute" unicode="&#xfd;" horiz-adv-x="467" 
d="M452 482l-166 -464q-10 -27 -18 -46.5t-18.5 -41.5t-20 -38t-21.5 -32.5t-24.5 -27t-28 -19t-32 -12.5t-37 -4t-43.5 5l16 95q43 -9 67 13t57 105l-168 467h102l117 -333l116 333h102zM284 700h95l-101 -136h-70z" />
    <glyph glyph-name="thorn" unicode="&#xfe;" horiz-adv-x="541" 
d="M287 489q102 0 163 -71.5t61 -176.5q0 -106 -60.5 -177t-163.5 -71q-90 0 -147 59v-270h-95v924h95v-276q57 59 147 59zM276 88q63 0 97 43.5t34 109.5t-34 109.5t-97 43.5t-97 -43.5t-34 -109.5t34 -109.5t97 -43.5z" />
    <glyph glyph-name="ydieresis" unicode="&#xff;" horiz-adv-x="467" 
d="M452 482l-166 -464q-10 -27 -18 -46.5t-18.5 -41.5t-20 -38t-21.5 -32.5t-24.5 -27t-28 -19t-32 -12.5t-37 -4t-43.5 5l16 95q43 -9 67 13t57 105l-168 467h102l117 -333l116 333h102zM173 678q20 0 34.5 -15t14.5 -35t-14.5 -34.5t-34.5 -14.5t-34.5 14.5t-14.5 34.5
t14.5 35t34.5 15zM335 678q20 0 34.5 -15t14.5 -35t-14.5 -34.5t-34.5 -14.5q-21 0 -35.5 14.5t-14.5 34.5t14.5 35t35.5 15z" />
    <glyph glyph-name="Amacron" unicode="&#x100;" horiz-adv-x="636" 
d="M364 700l252 -700h-105l-193 557l-193 -557h-105l251 700h93zM188 873h260v-84h-260v84z" />
    <glyph glyph-name="amacron" unicode="&#x101;" horiz-adv-x="464" 
d="M241 490q81 0 129.5 -43t48.5 -134v-313h-94v57q-48 -56 -134 -64q-81 -7 -126.5 37t-38.5 107q8 66 49.5 96.5t126.5 52.5q12 3 35 8t33.5 8t24 8.5t20 12.5t7.5 17q5 33 -24 50.5t-64 14.5q-82 -3 -102 -76l-86 18q11 55 60.5 99t134.5 44zM325 206v21
q-43 -12 -107 -28q-39 -10 -61 -27t-25.5 -29.5t-1.5 -25.5q6 -43 74 -38q42 3 81.5 38.5t39.5 88.5zM110 673h260v-84h-260v84z" />
    <glyph glyph-name="Abreve" unicode="&#x102;" horiz-adv-x="636" 
d="M364 700l252 -700h-105l-193 557l-193 -557h-105l251 700h93zM367 900h75q0 -51 -36 -87.5t-88 -36.5q-51 0 -87.5 36.5t-36.5 87.5h75q0 -20 14.5 -34.5t34.5 -14.5t34.5 14.5t14.5 34.5z" />
    <glyph glyph-name="abreve" unicode="&#x103;" horiz-adv-x="464" 
d="M241 490q81 0 129.5 -43t48.5 -134v-313h-94v57q-48 -56 -134 -64q-81 -7 -126.5 37t-38.5 107q8 66 49.5 96.5t126.5 52.5q12 3 35 8t33.5 8t24 8.5t20 12.5t7.5 17q5 33 -24 50.5t-64 14.5q-82 -3 -102 -76l-86 18q11 55 60.5 99t134.5 44zM325 206v21
q-43 -12 -107 -28q-39 -10 -61 -27t-25.5 -29.5t-1.5 -25.5q6 -43 74 -38q42 3 81.5 38.5t39.5 88.5zM299 700h75q0 -51 -36 -87.5t-88 -36.5q-51 0 -87.5 36.5t-36.5 87.5h75q0 -20 14.5 -34.5t34.5 -14.5t34.5 14.5t14.5 34.5z" />
    <glyph glyph-name="Aogonek" unicode="&#x104;" horiz-adv-x="637" 
d="M522 -116q8 -15 30.5 -14.5t38.5 14.5v-78q-24 -9 -47 -9q-40 0 -66 24.5t-22 65.5q3 36 28.5 68t47.5 45h-20l-193 557l-194 -557h-105l252 700h93l252 -700h-13q-37 -17 -66.5 -53t-15.5 -63z" />
    <glyph glyph-name="aogonek" unicode="&#x105;" horiz-adv-x="464" 
d="M327 -116q8 -14 30.5 -13.5t38.5 13.5v-77q-23 -9 -46 -9q-40 0 -66 24t-22 65q3 36 27 67t47 46h-11v57q-48 -56 -134 -64q-81 -7 -126.5 37t-38.5 107q8 66 49.5 96.5t126.5 52.5q12 3 35 8t33.5 8t24 8.5t20 12.5t7.5 17q5 33 -24 50.5t-64 14.5q-82 -3 -102 -76
l-86 18q11 55 60.5 99t134.5 44q81 0 129.5 -43t48.5 -134v-313h-10q-37 -18 -66 -53.5t-16 -62.5zM325 206v21q-43 -12 -107 -28q-39 -10 -61 -27t-25.5 -29.5t-1.5 -25.5q6 -43 74 -38q42 3 81.5 38.5t39.5 88.5z" />
    <glyph glyph-name="Cacute" unicode="&#x106;" horiz-adv-x="703" 
d="M380 88q65 0 117 30t84 82l88 -44q-45 -75 -121 -119t-168 -44q-146 0 -243 103.5t-97 252.5q0 150 97 253.5t243 103.5q93 0 168.5 -44t120.5 -120l-88 -43q-32 52 -84 81.5t-117 29.5q-107 0 -174.5 -75t-67.5 -186q0 -110 67.5 -185.5t174.5 -75.5zM322 348
q0 25 17.5 43t42.5 18t43 -18t18 -43t-18 -42.5t-43 -17.5t-42.5 17.5t-17.5 42.5zM415 900h95l-101 -136h-70z" />
    <glyph glyph-name="cacute" unicode="&#x107;" horiz-adv-x="483" 
d="M265 88q73 0 110 60l88 -42q-30 -52 -81.5 -82.5t-116.5 -30.5q-103 0 -169 72t-66 176t66 176t169 72q65 0 116.5 -30.5t81.5 -82.5l-88 -42q-37 60 -110 60q-63 0 -98.5 -44t-35.5 -109t35.5 -109t98.5 -44zM297 700h95l-101 -136h-70z" />
    <glyph glyph-name="Ccircumflex" unicode="&#x108;" horiz-adv-x="703" 
d="M380 88q65 0 117 30t84 82l88 -44q-45 -75 -121 -119t-168 -44q-146 0 -243 103.5t-97 252.5q0 150 97 253.5t243 103.5q93 0 168.5 -44t120.5 -120l-88 -43q-32 52 -84 81.5t-117 29.5q-107 0 -174.5 -75t-67.5 -186q0 -110 67.5 -185.5t174.5 -75.5zM322 348
q0 25 17.5 43t42.5 18t43 -18t18 -43t-18 -42.5t-43 -17.5t-42.5 17.5t-17.5 42.5zM408 900l112 -136h-101l-54 70l-55 -70h-100l111 136h87z" />
    <glyph glyph-name="ccircumflex" unicode="&#x109;" horiz-adv-x="483" 
d="M265 88q73 0 110 60l88 -42q-30 -52 -81.5 -82.5t-116.5 -30.5q-103 0 -169 72t-66 176t66 176t169 72q65 0 116.5 -30.5t81.5 -82.5l-88 -42q-37 60 -110 60q-63 0 -98.5 -44t-35.5 -109t35.5 -109t98.5 -44zM301 700l112 -136h-101l-54 70l-55 -70h-100l111 136h87z
" />
    <glyph glyph-name="Cdotaccent" unicode="&#x10a;" horiz-adv-x="703" 
d="M380 88q65 0 117 30t84 82l88 -44q-45 -75 -121 -119t-168 -44q-146 0 -243 103.5t-97 252.5q0 150 97 253.5t243 103.5q93 0 168.5 -44t120.5 -120l-88 -43q-32 52 -84 81.5t-117 29.5q-107 0 -174.5 -75t-67.5 -186q0 -110 67.5 -185.5t174.5 -75.5zM322 348
q0 25 17.5 43t42.5 18t43 -18t18 -43t-18 -42.5t-43 -17.5t-42.5 17.5t-17.5 42.5zM364 878q20 0 35 -15t15 -35t-15 -34.5t-35 -14.5t-34.5 14.5t-14.5 34.5t14.5 35t34.5 15z" />
    <glyph glyph-name="cdotaccent" unicode="&#x10b;" horiz-adv-x="483" 
d="M265 88q73 0 110 60l88 -42q-30 -52 -81.5 -82.5t-116.5 -30.5q-103 0 -169 72t-66 176t66 176t169 72q65 0 116.5 -30.5t81.5 -82.5l-88 -42q-37 60 -110 60q-63 0 -98.5 -44t-35.5 -109t35.5 -109t98.5 -44zM256 678q20 0 35 -15t15 -35t-15 -34.5t-35 -14.5
t-34.5 14.5t-14.5 34.5t14.5 35t34.5 15z" />
    <glyph glyph-name="Ccaron" unicode="&#x10c;" horiz-adv-x="703" 
d="M380 88q65 0 117 30t84 82l88 -44q-45 -75 -121 -119t-168 -44q-146 0 -243 103.5t-97 252.5q0 150 97 253.5t243 103.5q93 0 168.5 -44t120.5 -120l-88 -43q-32 52 -84 81.5t-117 29.5q-107 0 -174.5 -75t-67.5 -186q0 -110 67.5 -185.5t174.5 -75.5zM322 348
q0 25 17.5 43t42.5 18t43 -18t18 -43t-18 -42.5t-43 -17.5t-42.5 17.5t-17.5 42.5zM521 900l-112 -136h-87l-111 136h100l55 -70l54 70h101z" />
    <glyph glyph-name="ccaron" unicode="&#x10d;" horiz-adv-x="483" 
d="M265 88q73 0 110 60l88 -42q-30 -52 -81.5 -82.5t-116.5 -30.5q-103 0 -169 72t-66 176t66 176t169 72q65 0 116.5 -30.5t81.5 -82.5l-88 -42q-37 60 -110 60q-63 0 -98.5 -44t-35.5 -109t35.5 -109t98.5 -44zM414 700l-112 -136h-87l-111 136h100l55 -70l54 70h101z" />
    <glyph glyph-name="Dcaron" unicode="&#x10e;" horiz-adv-x="674" 
d="M272 700q168 0 267.5 -97.5t99.5 -252.5t-100 -252.5t-267 -97.5h-207v338h95v-242h111q123 0 196.5 68.5t73.5 185.5t-72 186t-197 69h-207v95h207zM469 900l-112 -136h-87l-111 136h100l55 -70l54 70h101z" />
    <glyph glyph-name="dcaron" unicode="&#x10f;" horiz-adv-x="609" 
d="M396 700h96v-700h-96v52q-56 -59 -147 -59q-102 0 -163 71.5t-61 176.5t61 176.5t163 71.5q91 0 147 -59v270zM261 88q62 0 96.5 44t34.5 109q0 66 -34 109.5t-97 43.5t-97.5 -43.5t-34.5 -109.5t34.5 -109.5t97.5 -43.5zM584 700h90l-69 -168h-50z" />
    <glyph glyph-name="Dcroat" unicode="&#x110;" horiz-adv-x="714" 
d="M15 392h331v-84h-146v-212h111q123 0 196.5 68.5t73.5 185.5t-72 186t-197 69h-207v95h207q168 0 267.5 -97.5t99.5 -252.5t-100 -252.5t-267 -97.5h-207v308h-90v84z" />
    <glyph glyph-name="dcroat" unicode="&#x111;" horiz-adv-x="542" 
d="M565 620v-84h-74v-536h-95v52q-57 -59 -147 -59q-102 0 -163 71.5t-61 176.5q0 106 60.5 177t163.5 71q90 0 147 -59v106h-107v84h107v80h95v-80h74zM260 88q63 0 97 43.5t34 109.5t-34 109.5t-97 43.5t-97 -43.5t-34 -109.5t34 -109.5t97 -43.5z" />
    <glyph glyph-name="Emacron" unicode="&#x112;" horiz-adv-x="569" 
d="M65 96h465v-96h-465v96zM493 397v-93h-428v93h428zM524 700v-95h-459v95h459zM167 873h260v-84h-260v84z" />
    <glyph glyph-name="emacron" unicode="&#x113;" horiz-adv-x="507" 
d="M473 193h-336q11 -47 44 -76t84 -29q73 0 110 60l87 -42q-30 -53 -81 -83t-116 -30q-103 0 -169 72t-66 176t64.5 176t167.5 72q101 0 158 -70.5t57 -177.5q0 -27 -4 -48zM262 394q-52 0 -84.5 -30.5t-42.5 -80.5h244q-18 111 -117 111zM134 673h260v-84h-260v84z" />
    <glyph glyph-name="Ebreve" unicode="&#x114;" horiz-adv-x="569" 
d="M65 96h465v-96h-465v96zM493 397v-93h-428v93h428zM524 700v-95h-459v95h459zM346 900h75q0 -51 -36 -87.5t-88 -36.5q-51 0 -87.5 36.5t-36.5 87.5h75q0 -20 14.5 -34.5t34.5 -14.5t34.5 14.5t14.5 34.5z" />
    <glyph glyph-name="ebreve" unicode="&#x115;" horiz-adv-x="507" 
d="M473 193h-336q11 -47 44 -76t84 -29q73 0 110 60l87 -42q-30 -53 -81 -83t-116 -30q-103 0 -169 72t-66 176t64.5 176t167.5 72q101 0 158 -70.5t57 -177.5q0 -27 -4 -48zM262 394q-52 0 -84.5 -30.5t-42.5 -80.5h244q-18 111 -117 111zM303 700h75q0 -51 -36 -87.5
t-88 -36.5q-51 0 -87.5 36.5t-36.5 87.5h75q0 -20 14.5 -34.5t34.5 -14.5t34.5 14.5t14.5 34.5z" />
    <glyph glyph-name="Edotaccent" unicode="&#x116;" horiz-adv-x="569" 
d="M65 96h465v-96h-465v96zM493 397v-93h-428v93h428zM524 700v-95h-459v95h459zM297 878q20 0 35 -15t15 -35t-15 -34.5t-35 -14.5t-34.5 14.5t-14.5 34.5t14.5 35t34.5 15z" />
    <glyph glyph-name="edotaccent" unicode="&#x117;" horiz-adv-x="507" 
d="M473 193h-336q11 -47 44 -76t84 -29q73 0 110 60l87 -42q-30 -53 -81 -83t-116 -30q-103 0 -169 72t-66 176t64.5 176t167.5 72q101 0 158 -70.5t57 -177.5q0 -27 -4 -48zM262 394q-52 0 -84.5 -30.5t-42.5 -80.5h244q-18 111 -117 111zM263 678q20 0 35 -15t15 -35
t-15 -34.5t-35 -14.5t-34.5 14.5t-14.5 34.5t14.5 35t34.5 15z" />
    <glyph glyph-name="Eogonek" unicode="&#x118;" horiz-adv-x="575" 
d="M448 -116q8 -15 30 -14.5t38 14.5v-78q-23 -9 -46 -9q-40 0 -66 24.5t-22 65.5q3 36 28.5 68t47.5 45h-393v96h465v-96q-37 -17 -66.5 -53t-15.5 -63zM524 700v-95h-459v95h459zM493 397v-93h-428v93h428z" />
    <glyph glyph-name="eogonek" unicode="&#x119;" horiz-adv-x="508" 
d="M474 193h-337q12 -47 45 -76t83 -29q73 0 110 60l88 -42q-30 -52 -77 -80q-36 -30 -62.5 -74t-14.5 -68q8 -15 30 -14.5t38 14.5v-78q-20 -8 -46 -8q-40 0 -66 24t-22 65q4 50 66 110q-19 -4 -44 -4q-103 0 -169 72t-66 176q0 105 64.5 177t167.5 72q102 0 159 -71
t57 -178q0 -16 -4 -48zM262 394q-52 0 -84.5 -30.5t-42.5 -80.5h244q-18 111 -117 111z" />
    <glyph glyph-name="Ecaron" unicode="&#x11a;" horiz-adv-x="569" 
d="M65 96h465v-96h-465v96zM493 397v-93h-428v93h428zM524 700v-95h-459v95h459zM454 900l-112 -136h-87l-111 136h100l55 -70l54 70h101z" />
    <glyph glyph-name="ecaron" unicode="&#x11b;" horiz-adv-x="507" 
d="M473 193h-336q11 -47 44 -76t84 -29q73 0 110 60l87 -42q-30 -53 -81 -83t-116 -30q-103 0 -169 72t-66 176t64.5 176t167.5 72q101 0 158 -70.5t57 -177.5q0 -27 -4 -48zM262 394q-52 0 -84.5 -30.5t-42.5 -80.5h244q-18 111 -117 111zM411 700l-112 -136h-87l-111 136
h100l55 -70l54 70h101z" />
    <glyph glyph-name="Gcircumflex" unicode="&#x11c;" horiz-adv-x="722" 
d="M572 393h95v-291q-39 -53 -119 -86.5t-179 -22.5q-148 15 -238.5 112t-90.5 244q0 149 92 248t239 109q80 5 152.5 -17t123.5 -63l-49 -72q-34 27 -93 44t-125 12q-103 -7 -172.5 -80.5t-69.5 -180.5q0 -106 68 -177t172 -84q123 -15 194 48v257zM419 900l112 -136h-101
l-54 70l-55 -70h-100l111 136h87z" />
    <glyph glyph-name="gcircumflex" unicode="&#x11d;" horiz-adv-x="491" 
d="M481 442q-56 1 -89 -36q23 -37 23 -85q0 -75 -53 -121.5t-135 -46.5q-19 0 -28 1q-14 -8 -20.5 -19t0.5 -21q12 -14 76 -14q117 0 169.5 -29t54.5 -93q2 -77 -64.5 -126t-168.5 -47q-161 4 -246 91l53 64q66 -62 188 -67q60 -2 100 18.5t42 52.5q1 28 -29 37t-108 12
q-104 5 -140 36q-16 14 -22 33.5t3.5 45.5t36.5 49q-85 46 -85 144q0 75 53 121.5t135 46.5q74 0 127 -40q50 71 127 71v-78zM227 237q41 0 68 22.5t27 61.5t-27 61.5t-68 22.5t-68.5 -22.5t-27.5 -61.5t27.5 -61.5t68.5 -22.5zM282 700l112 -136h-101l-54 70l-55 -70h-100
l111 136h87z" />
    <glyph glyph-name="Gbreve" unicode="&#x11e;" horiz-adv-x="722" 
d="M572 393h95v-291q-39 -53 -119 -86.5t-179 -22.5q-148 15 -238.5 112t-90.5 244q0 149 92 248t239 109q80 5 152.5 -17t123.5 -63l-49 -72q-34 27 -93 44t-125 12q-103 -7 -172.5 -80.5t-69.5 -180.5q0 -106 68 -177t172 -84q123 -15 194 48v257zM424 900h75
q0 -51 -36 -87.5t-88 -36.5q-51 0 -87.5 36.5t-36.5 87.5h75q0 -20 14.5 -34.5t34.5 -14.5t34.5 14.5t14.5 34.5z" />
    <glyph glyph-name="gbreve" unicode="&#x11f;" horiz-adv-x="491" 
d="M481 442q-56 1 -89 -36q23 -37 23 -85q0 -75 -53 -121.5t-135 -46.5q-19 0 -28 1q-14 -8 -20.5 -19t0.5 -21q12 -14 76 -14q117 0 169.5 -29t54.5 -93q2 -77 -64.5 -126t-168.5 -47q-161 4 -246 91l53 64q66 -62 188 -67q60 -2 100 18.5t42 52.5q1 28 -29 37t-108 12
q-104 5 -140 36q-16 14 -22 33.5t3.5 45.5t36.5 49q-85 46 -85 144q0 75 53 121.5t135 46.5q74 0 127 -40q50 71 127 71v-78zM227 237q41 0 68 22.5t27 61.5t-27 61.5t-68 22.5t-68.5 -22.5t-27.5 -61.5t27.5 -61.5t68.5 -22.5zM288 700h75q0 -51 -36 -87.5t-88 -36.5
q-51 0 -87.5 36.5t-36.5 87.5h75q0 -20 14.5 -34.5t34.5 -14.5t34.5 14.5t14.5 34.5z" />
    <glyph glyph-name="Gdotaccent" unicode="&#x120;" horiz-adv-x="722" 
d="M572 393h95v-291q-39 -53 -119 -86.5t-179 -22.5q-148 15 -238.5 112t-90.5 244q0 149 92 248t239 109q80 5 152.5 -17t123.5 -63l-49 -72q-34 27 -93 44t-125 12q-103 -7 -172.5 -80.5t-69.5 -180.5q0 -106 68 -177t172 -84q123 -15 194 48v257zM374 878q20 0 35 -15
t15 -35t-15 -34.5t-35 -14.5t-34.5 14.5t-14.5 34.5t14.5 35t34.5 15z" />
    <glyph glyph-name="gdotaccent" unicode="&#x121;" horiz-adv-x="491" 
d="M481 442q-56 1 -89 -36q23 -37 23 -85q0 -75 -53 -121.5t-135 -46.5q-19 0 -28 1q-14 -8 -20.5 -19t0.5 -21q12 -14 76 -14q117 0 169.5 -29t54.5 -93q2 -77 -64.5 -126t-168.5 -47q-161 4 -246 91l53 64q66 -62 188 -67q60 -2 100 18.5t42 52.5q1 28 -29 37t-108 12
q-104 5 -140 36q-16 14 -22 33.5t3.5 45.5t36.5 49q-85 46 -85 144q0 75 53 121.5t135 46.5q74 0 127 -40q50 71 127 71v-78zM227 237q41 0 68 22.5t27 61.5t-27 61.5t-68 22.5t-68.5 -22.5t-27.5 -61.5t27.5 -61.5t68.5 -22.5zM232 678q20 0 35 -15t15 -35t-15 -34.5
t-35 -14.5t-34.5 14.5t-14.5 34.5t14.5 35t34.5 15z" />
    <glyph glyph-name="Gcommaaccent" unicode="&#x122;" horiz-adv-x="722" 
d="M572 393h95v-291q-39 -53 -119 -86.5t-179 -22.5q-148 15 -238.5 112t-90.5 244q0 149 92 248t239 109q80 5 152.5 -17t123.5 -63l-49 -72q-34 27 -93 44t-125 12q-103 -7 -172.5 -80.5t-69.5 -180.5q0 -106 68 -177t172 -84q123 -15 194 48v257zM324 -77h90l-57 -131
h-62z" />
    <glyph glyph-name="gcommaaccent" unicode="&#x123;" horiz-adv-x="491" 
d="M481 442q-56 1 -89 -36q23 -37 23 -85q0 -75 -53 -121.5t-135 -46.5q-19 0 -28 1q-14 -8 -20.5 -19t0.5 -21q12 -14 76 -14q117 0 169.5 -29t54.5 -93q2 -77 -64.5 -126t-168.5 -47q-161 4 -246 91l53 64q66 -62 188 -67q60 -2 100 18.5t42 52.5q1 28 -29 37t-108 12
q-104 5 -140 36q-16 14 -22 33.5t3.5 45.5t36.5 49q-85 46 -85 144q0 75 53 121.5t135 46.5q74 0 127 -40q50 71 127 71v-78zM227 237q41 0 68 22.5t27 61.5t-27 61.5t-68 22.5t-68.5 -22.5t-27.5 -61.5t27.5 -61.5t68.5 -22.5zM199 582l70 168h50l-29 -168h-91z" />
    <glyph glyph-name="Hcircumflex" unicode="&#x124;" horiz-adv-x="667" 
d="M65 0v188h95v-188h-95zM506 700h96v-188h-96v188zM160 397h442v-397h-96v304h-441v396h95v-303zM378 900l112 -136h-101l-54 70l-55 -70h-100l111 136h87z" />
    <glyph glyph-name="hcircumflex" unicode="&#x125;" horiz-adv-x="488" 
d="M394 771h-84l-62 80l-62 -80h-83l111 137h68zM264 489q86 0 132.5 -56.5t46.5 -160.5v-272h-95v263q0 67 -28 99t-73 32q-48 0 -77 -30.5t-29 -94.5v-269h-96v700h96v-264q50 53 123 53z" />
    <glyph glyph-name="Hbar" unicode="&#x126;" horiz-adv-x="731" 
d="M701 580v-84h-67v-496h-96v304h-346v-304h-95v496h-67v84h67v120h95v-120h346v120h96v-120h67zM538 396v100h-346v-100h346z" />
    <glyph glyph-name="hbar" unicode="&#x127;" horiz-adv-x="522" 
d="M299 489q85 0 131.5 -56.5t46.5 -160.5v-272h-95v263q0 67 -28 99t-73 32q-47 0 -76.5 -31t-29.5 -94v-269h-95v536h-75v84h75v80h95v-80h106v-84h-106v-100q51 53 124 53z" />
    <glyph glyph-name="Itilde" unicode="&#x128;" horiz-adv-x="248" 
d="M77 489h95v-489h-95v489zM77 700h95v-113h-95v113zM234 902l79 -28q-57 -152 -195 -75q-33 18 -52 20t-29 -7t-27 -35l-75 40q39 74 91 87.5t112 -22.5q29 -16 44.5 -20t29 4.5t22.5 35.5z" />
    <glyph glyph-name="itilde" unicode="&#x129;" horiz-adv-x="263" 
d="M101 0v482h95v-482h-95zM259 702l79 -28q-57 -152 -195 -75q-33 18 -52 20t-29 -7t-27 -35l-75 40q39 74 91 87.5t112 -22.5q29 -16 44.5 -20t29 4.5t22.5 35.5z" />
    <glyph glyph-name="Imacron" unicode="&#x12a;" horiz-adv-x="225" 
d="M63 489h95v-489h-95v489zM63 700h95v-113h-95v113zM-19 873h260v-84h-260v84z" />
    <glyph glyph-name="imacron" unicode="&#x12b;" horiz-adv-x="240" 
d="M87 0v482h95v-482h-95zM5 673h260v-84h-260v84z" />
    <glyph glyph-name="Ibreve" unicode="&#x12c;" horiz-adv-x="225" 
d="M65 489h95v-489h-95v489zM65 700h95v-113h-95v113zM162 900h75q0 -51 -36 -87.5t-88 -36.5q-51 0 -87.5 36.5t-36.5 87.5h75q0 -20 14.5 -34.5t34.5 -14.5t34.5 14.5t14.5 34.5z" />
    <glyph glyph-name="ibreve" unicode="&#x12d;" horiz-adv-x="233" 
d="M71 0v482h95v-482h-95zM168 700h75q0 -51 -36 -87.5t-88 -36.5q-51 0 -87.5 36.5t-36.5 87.5h75q0 -20 14.5 -34.5t34.5 -14.5t34.5 14.5t14.5 34.5z" />
    <glyph glyph-name="Iogonek" unicode="&#x12e;" horiz-adv-x="225" 
d="M65 700h95v-113h-95v113zM65 0v489h95v-489h-9q-37 -18 -66.5 -53.5t-15.5 -62.5q8 -15 30.5 -14.5t38.5 14.5v-78q-24 -9 -47 -9q-40 0 -66 24.5t-22 65.5q3 36 28.5 68t47.5 45h-14z" />
    <glyph glyph-name="iogonek" unicode="&#x12f;" horiz-adv-x="206" 
d="M101 556q-23 0 -39.5 16.5t-16.5 39.5t16.5 39t39.5 16t39 -16.5t16 -38.5q0 -23 -16 -39.5t-39 -16.5zM52 0v482h96v-482h-9q-37 -16 -66.5 -52.5t-16.5 -63.5q8 -15 30.5 -14.5t38.5 14.5v-78q-20 -8 -46 -8q-40 0 -66 24t-22 65q3 36 28 67.5t48 45.5h-15z" />
    <glyph glyph-name="Idotaccent" unicode="&#x130;" horiz-adv-x="225" 
d="M65 489h95v-489h-95v489zM65 700h95v-113h-95v113zM112 878q20 0 35 -15t15 -35t-15 -34.5t-35 -14.5t-34.5 14.5t-14.5 34.5t14.5 35t34.5 15z" />
    <glyph glyph-name="dotlessi" unicode="&#x131;" horiz-adv-x="206" 
d="M55 0v482h95v-482h-95z" />
    <glyph glyph-name="Jcircumflex" unicode="&#x134;" horiz-adv-x="420" 
d="M260 489h95v-289q0 -102 -45.5 -154.5t-131.5 -52.5q-51 0 -96 20.5t-67 50.5l66 64q40 -40 92 -40q41 0 64 27.5t23 79.5v294zM260 700h95v-113h-95v113zM352 900l112 -136h-101l-54 70l-55 -70h-100l111 136h87z" />
    <glyph glyph-name="jcircumflex" unicode="&#x135;" horiz-adv-x="234" 
d="M75 482h96v-542q0 -131 -88 -159q-66 -21 -128 20l34 76q33 -14 57 -5q29 12 29 66v544zM167 700l112 -136h-101l-54 70l-55 -70h-100l111 136h87z" />
    <glyph glyph-name="Kcommaaccent" unicode="&#x136;" horiz-adv-x="611" 
d="M475 0l-214 305h-100v-305h-96v700h96v-303h84l208 303h122l-237 -337l258 -363h-121zM260 -77h90l-57 -131h-62z" />
    <glyph glyph-name="kcommaaccent" unicode="&#x137;" horiz-adv-x="469" 
d="M341 0l-131 196h-69v-196h-96v700h96v-414h58l134 196h113l-162 -231l170 -251h-113zM189 -77h90l-57 -131h-62z" />
    <glyph glyph-name="Lacute" unicode="&#x139;" horiz-adv-x="516" 
d="M161 700v-113h-96v113h96zM161 489v-308l-96 -95v403h96zM223 96h263v-96h-360zM156 900h95l-101 -136h-70z" />
    <glyph glyph-name="lacute" unicode="&#x13a;" horiz-adv-x="280" 
d="M226 100l49 -67q-28 -27 -67.5 -36.5t-76.5 1.5q-86 24 -86 157v595h96v-594q0 -54 29 -66q30 -13 56 10zM139 954h95l-101 -136h-70z" />
    <glyph glyph-name="Lcommaaccent" unicode="&#x13b;" horiz-adv-x="516" 
d="M161 700v-113h-96v113h96zM161 489v-308l-96 -95v403h96zM223 96h263v-96h-360zM245 -77h90l-57 -131h-62z" />
    <glyph glyph-name="lcommaaccent" unicode="&#x13c;" horiz-adv-x="280" 
d="M226 100l49 -67q-28 -27 -67.5 -36.5t-76.5 1.5q-86 24 -86 157v595h96v-594q0 -54 29 -66q30 -13 56 10zM108 -77h90l-57 -131h-62z" />
    <glyph glyph-name="Lcaron" unicode="&#x13d;" horiz-adv-x="516" 
d="M161 700v-113h-96v113h96zM161 489v-308l-96 -95v403h96zM223 96h263v-96h-360zM272 700h90l-69 -168h-50z" />
    <glyph glyph-name="lcaron" unicode="&#x13e;" horiz-adv-x="293" 
d="M226 100l49 -67q-28 -27 -67.5 -36.5t-76.5 1.5q-86 24 -86 157v595h96v-594q0 -54 29 -66q30 -13 56 10zM239 700h90l-69 -168h-50z" />
    <glyph glyph-name="Ldot" unicode="&#x13f;" horiz-adv-x="516" 
d="M161 700v-113h-96v113h96zM161 489v-308l-96 -95v403h96zM223 96h263v-96h-360zM328 398q20 0 35 -15t15 -35t-15 -34.5t-35 -14.5t-34.5 14.5t-14.5 34.5t14.5 35t34.5 15z" />
    <glyph glyph-name="ldot" unicode="&#x140;" horiz-adv-x="314" 
d="M226 100l49 -67q-28 -27 -67.5 -36.5t-76.5 1.5q-86 24 -86 157v595h96v-594q0 -54 29 -66q30 -13 56 10zM258 284q20 0 35 -15t15 -35t-15 -34.5t-35 -14.5t-34.5 14.5t-14.5 34.5t14.5 35t34.5 15z" />
    <glyph glyph-name="Lslash" unicode="&#x141;" horiz-adv-x="589" 
d="M234 95h325v-95h-420v230l-124 -84v101l124 85v368h95v-303l193 132v-102l-193 -131v-201z" />
    <glyph glyph-name="lslash" unicode="&#x142;" horiz-adv-x="337" 
d="M283 100l49 -67q-28 -27 -68 -36.5t-77 1.5q-85 26 -85 157v140l-87 -59v102l87 59v353h96v-288l86 60v-102l-86 -59v-205q0 -55 28 -66q32 -12 57 10z" />
    <glyph glyph-name="Nacute" unicode="&#x143;" horiz-adv-x="660" 
d="M499 700h96v-707h-9l-426 467v-460h-95v706h8l426 -471v465zM381 900h95l-101 -136h-70z" />
    <glyph glyph-name="nacute" unicode="&#x144;" horiz-adv-x="497" 
d="M269 489q85 0 131.5 -56.5t46.5 -160.5v-272h-95v263q0 67 -28 99t-73 32q-48 0 -77 -30.5t-29 -94.5v-269h-95v482h95v-46q51 53 124 53zM299 700h95l-101 -136h-70z" />
    <glyph glyph-name="Ncommaaccent" unicode="&#x145;" horiz-adv-x="660" 
d="M499 700h96v-707h-9l-426 467v-460h-95v706h8l426 -471v465zM289 -77h90l-57 -131h-62z" />
    <glyph glyph-name="ncommaaccent" unicode="&#x146;" horiz-adv-x="497" 
d="M269 489q85 0 131.5 -56.5t46.5 -160.5v-272h-95v263q0 67 -28 99t-73 32q-48 0 -77 -30.5t-29 -94.5v-269h-95v482h95v-46q51 53 124 53zM218 -77h90l-57 -131h-62z" />
    <glyph glyph-name="Ncaron" unicode="&#x147;" horiz-adv-x="660" 
d="M499 700h96v-707h-9l-426 467v-460h-95v706h8l426 -471v465zM497 900l-112 -136h-87l-111 136h100l55 -70l54 70h101z" />
    <glyph glyph-name="ncaron" unicode="&#x148;" horiz-adv-x="497" 
d="M269 489q85 0 131.5 -56.5t46.5 -160.5v-272h-95v263q0 67 -28 99t-73 32q-48 0 -77 -30.5t-29 -94.5v-269h-95v482h95v-46q51 53 124 53zM406 700l-112 -136h-87l-111 136h100l55 -70l54 70h101z" />
    <glyph glyph-name="napostrophe" unicode="&#x149;" horiz-adv-x="580" 
d="M352 489q85 0 131.5 -56.5t46.5 -160.5v-272h-95v263q0 67 -28 99t-73 32q-48 0 -77 -30.5t-29 -94.5v-269h-95v482h95v-46q51 53 124 53zM34 580h90l-57 -131h-62z" />
    <glyph glyph-name="Eng" unicode="&#x14a;" horiz-adv-x="659" 
d="M499 700h95v-728q0 -131 -87 -159q-66 -20 -128 19l34 77q33 -14 57 -5q29 11 29 66v35l-339 524v-529h-95v700h92l342 -529v529z" />
    <glyph glyph-name="eng" unicode="&#x14b;" horiz-adv-x="497" 
d="M268 489q86 0 132.5 -56.5t46.5 -160.5v-300q0 -131 -87 -159q-67 -21 -128 19l33 77q34 -14 57 -5q30 11 30 66v293q0 67 -28 99t-73 32q-47 0 -76.5 -31t-29.5 -94v-269h-96v482h96v-46q50 53 123 53z" />
    <glyph glyph-name="Omacron" unicode="&#x14c;" 
d="M379 706q147 0 243.5 -103.5t96.5 -253.5t-96.5 -253t-243.5 -103q-146 0 -242.5 103.5t-96.5 253.5q0 149 96.5 252.5t242.5 103.5zM379 88q107 0 174.5 75.5t67.5 185.5q0 111 -67.5 186.5t-174.5 75.5q-106 0 -173.5 -75t-67.5 -186t67.5 -186.5t173.5 -75.5zM379 410
q25 0 43 -18t18 -43t-18 -42.5t-43 -17.5t-42.5 17.5t-17.5 42.5t17.5 43t42.5 18zM249 873h260v-84h-260v84z" />
    <glyph glyph-name="omacron" unicode="&#x14d;" horiz-adv-x="530" 
d="M265 489q103 0 169 -72t66 -176t-66 -176t-169 -72t-169 72t-66 176t66 176t169 72zM265 88q63 0 98.5 44t35.5 109q0 66 -35.5 109.5t-98.5 43.5t-98.5 -44t-35.5 -109t35.5 -109t98.5 -44zM135 673h260v-84h-260v84z" />
    <glyph glyph-name="Obreve" unicode="&#x14e;" 
d="M379 706q147 0 243.5 -103.5t96.5 -253.5t-96.5 -253t-243.5 -103q-146 0 -242.5 103.5t-96.5 253.5q0 149 96.5 252.5t242.5 103.5zM379 88q107 0 174.5 75.5t67.5 185.5q0 111 -67.5 186.5t-174.5 75.5q-106 0 -173.5 -75t-67.5 -186t67.5 -186.5t173.5 -75.5zM379 410
q25 0 43 -18t18 -43t-18 -42.5t-43 -17.5t-42.5 17.5t-17.5 42.5t17.5 43t42.5 18zM429 900h75q0 -51 -36 -87.5t-88 -36.5q-51 0 -87.5 36.5t-36.5 87.5h75q0 -20 14.5 -34.5t34.5 -14.5t34.5 14.5t14.5 34.5z" />
    <glyph glyph-name="obreve" unicode="&#x14f;" horiz-adv-x="530" 
d="M265 489q103 0 169 -72t66 -176t-66 -176t-169 -72t-169 72t-66 176t66 176t169 72zM265 88q63 0 98.5 44t35.5 109q0 66 -35.5 109.5t-98.5 43.5t-98.5 -44t-35.5 -109t35.5 -109t98.5 -44zM314 700h75q0 -51 -36 -87.5t-88 -36.5q-51 0 -87.5 36.5t-36.5 87.5h75
q0 -20 14.5 -34.5t34.5 -14.5t34.5 14.5t14.5 34.5z" />
    <glyph glyph-name="Ohungarumlaut" unicode="&#x150;" 
d="M379 706q147 0 243.5 -103.5t96.5 -253.5t-96.5 -253t-243.5 -103q-146 0 -242.5 103.5t-96.5 253.5q0 149 96.5 252.5t242.5 103.5zM379 88q107 0 174.5 75.5t67.5 185.5q0 111 -67.5 186.5t-174.5 75.5q-106 0 -173.5 -75t-67.5 -186t67.5 -186.5t173.5 -75.5zM379 410
q25 0 43 -18t18 -43t-18 -42.5t-43 -17.5t-42.5 17.5t-17.5 42.5t17.5 43t42.5 18zM346 900h95l-101 -136h-70zM495 900h95l-101 -136h-70z" />
    <glyph glyph-name="ohungarumlaut" unicode="&#x151;" horiz-adv-x="530" 
d="M265 489q103 0 169 -72t66 -176t-66 -176t-169 -72t-169 72t-66 176t66 176t169 72zM265 88q63 0 98.5 44t35.5 109q0 66 -35.5 109.5t-98.5 43.5t-98.5 -44t-35.5 -109t35.5 -109t98.5 -44zM231 700h95l-101 -136h-70zM380 700h95l-101 -136h-70z" />
    <glyph glyph-name="OE" unicode="&#x152;" horiz-adv-x="1050" 
d="M636 96h369v-96h-465v32q-73 -39 -160 -39q-146 0 -243 104t-97 253t97 252.5t243 103.5q88 0 160 -40v34h459v-95h-363v-208h332v-93h-332v-208zM139 350q0 -111 67.5 -186.5t173.5 -75.5q95 0 160 62v399q-66 61 -160 61q-106 0 -173.5 -75t-67.5 -185z" />
    <glyph glyph-name="oe" unicode="&#x153;" horiz-adv-x="881" 
d="M847 193h-336q12 -47 45 -76t83 -29q73 0 110 60l88 -42q-30 -52 -81.5 -82.5t-116.5 -30.5q-121 0 -187 96q-66 -96 -187 -96q-103 0 -169 72t-66 176t66 176t169 72q120 0 187 -96q63 96 184 96q102 0 158.5 -70.5t56.5 -177.5q0 -27 -4 -48zM636 394
q-52 0 -84.5 -30.5t-42.5 -80.5h244q-18 111 -117 111zM265 88q63 0 98.5 44t35.5 109t-35.5 109t-98.5 44t-98.5 -43.5t-35.5 -109.5q0 -65 35.5 -109t98.5 -44z" />
    <glyph glyph-name="Racute" unicode="&#x154;" horiz-adv-x="606" 
d="M467 0l-141 249h-165v-249h-96v344h262q60 0 95.5 38t35.5 92q0 55 -35.5 93t-95.5 38h-262v95h262q104 0 166.5 -65t62.5 -161q0 -70 -34.5 -125t-96.5 -81l151 -268h-109zM321 900h95l-101 -136h-70z" />
    <glyph glyph-name="racute" unicode="&#x155;" horiz-adv-x="307" 
d="M264 490q14 0 38 -4l-18 -99q-17 7 -38 7q-47 0 -76.5 -30.5t-29.5 -94.5v-269h-95v482h95v-45q51 53 124 53zM224 700h95l-101 -136h-70z" />
    <glyph glyph-name="Rcommaaccent" unicode="&#x156;" horiz-adv-x="606" 
d="M467 0l-141 249h-165v-249h-96v344h262q60 0 95.5 38t35.5 92q0 55 -35.5 93t-95.5 38h-262v95h262q104 0 166.5 -65t62.5 -161q0 -70 -34.5 -125t-96.5 -81l151 -268h-109zM270 -77h90l-57 -131h-62z" />
    <glyph glyph-name="rcommaaccent" unicode="&#x157;" horiz-adv-x="307" 
d="M264 490q14 0 38 -4l-18 -99q-17 7 -38 7q-47 0 -76.5 -30.5t-29.5 -94.5v-269h-95v482h95v-45q51 53 124 53zM46 -77h90l-57 -131h-62z" />
    <glyph glyph-name="Rcaron" unicode="&#x158;" horiz-adv-x="606" 
d="M467 0l-141 249h-165v-249h-96v344h262q60 0 95.5 38t35.5 92q0 55 -35.5 93t-95.5 38h-262v95h262q104 0 166.5 -65t62.5 -161q0 -70 -34.5 -125t-96.5 -81l151 -268h-109zM448 900l-112 -136h-87l-111 136h100l55 -70l54 70h101z" />
    <glyph glyph-name="rcaron" unicode="&#x159;" horiz-adv-x="307" 
d="M265 490q14 0 38 -4l-18 -99q-17 7 -38 7q-47 0 -76.5 -30.5t-29.5 -94.5v-269h-95v482h95v-45q51 53 124 53zM332 700l-112 -136h-87l-111 136h100l55 -70l54 70h101z" />
    <glyph glyph-name="Sacute" unicode="&#x15a;" horiz-adv-x="605" 
d="M35 149l91 38q9 -21 31 -42t46 -33l-42 -88q-44 20 -77 53.5t-49 71.5zM316 403q125 -35 187 -79.5t62 -130.5t-66 -144.5t-182 -58.5q-25 0 -48 3l45 94q64 -1 107 28t43 75q0 44 -41 68t-141 53q-119 34 -175 77t-53 127q2 86 67.5 139t173.5 53q49 0 89 -12l-54 -86
q-18 2 -32 2q-72 0 -107 -29t-35 -70q0 -39 36 -61.5t124 -47.5zM331 900h95l-101 -136h-70z" />
    <glyph glyph-name="sacute" unicode="&#x15b;" horiz-adv-x="420" 
d="M394 154q6 -70 -44 -116.5t-133 -46.5q-78 0 -130.5 35t-71.5 88l90 32q22 -60 108 -60q45 0 66.5 17.5t18.5 40.5q-2 17 -26.5 29t-80.5 23q-75 15 -114 42t-48 79q-11 64 33.5 118t137.5 54q43 0 78 -13.5t55 -34t30.5 -37.5t14.5 -31l-90 -31q-8 24 -33.5 39t-54.5 15
q-42 0 -59 -16t-17 -35q0 -44 98 -62q86 -16 127 -45t45 -84zM236 700h95l-101 -136h-70z" />
    <glyph glyph-name="Scircumflex" unicode="&#x15c;" horiz-adv-x="605" 
d="M35 149l91 38q9 -21 31 -42t46 -33l-42 -88q-44 20 -77 53.5t-49 71.5zM316 403q125 -35 187 -79.5t62 -130.5t-66 -144.5t-182 -58.5q-25 0 -48 3l45 94q64 -1 107 28t43 75q0 44 -41 68t-141 53q-119 34 -175 77t-53 127q2 86 67.5 139t173.5 53q49 0 89 -12l-54 -86
q-18 2 -32 2q-72 0 -107 -29t-35 -70q0 -39 36 -61.5t124 -47.5zM344 900l112 -136h-101l-54 70l-55 -70h-100l111 136h87z" />
    <glyph glyph-name="scircumflex" unicode="&#x15d;" horiz-adv-x="420" 
d="M394 154q6 -70 -44 -116.5t-133 -46.5q-78 0 -130.5 35t-71.5 88l90 32q22 -60 108 -60q45 0 66.5 17.5t18.5 40.5q-2 17 -26.5 29t-80.5 23q-75 15 -114 42t-48 79q-11 64 33.5 118t137.5 54q43 0 78 -13.5t55 -34t30.5 -37.5t14.5 -31l-90 -31q-8 24 -33.5 39t-54.5 15
q-42 0 -59 -16t-17 -35q0 -44 98 -62q86 -16 127 -45t45 -84zM249 700l112 -136h-101l-54 70l-55 -70h-100l111 136h87z" />
    <glyph glyph-name="Scedilla" unicode="&#x15e;" horiz-adv-x="605" 
d="M565 193q0 -83 -62 -141t-172 -62l-22 -40q40 4 64 -18.5t24 -53.5q0 -22 -12.5 -43.5t-32.5 -30.5q-28 -14 -66.5 -9.5t-70.5 26.5l27 46q26 -19 53 -20t38 13q10 10 6.5 25t-18.5 19q-20 6 -41 -11l-48 30l86 164q64 1 105 29t41 74q0 44 -41 68t-141 53
q-119 34 -175 77t-53 127q3 86 68 139t173 53q49 0 89 -12l-54 -86q-18 2 -32 2q-72 0 -107.5 -29t-35.5 -70q0 -39 36 -61.5t125 -47.5q61 -17 100.5 -32.5t76.5 -39.5t54.5 -58t17.5 -80zM35 149l90 38q24 -49 77 -75l-47 -86q-85 43 -120 123z" />
    <glyph glyph-name="scedilla" unicode="&#x15f;" horiz-adv-x="420" 
d="M394 154q5 -64 -37.5 -109t-114.5 -53l-23 -42q39 4 63.5 -18.5t24.5 -53.5q0 -22 -13 -43.5t-33 -30.5q-28 -14 -66 -9.5t-71 26.5l27 46q26 -19 53.5 -20t37.5 13q10 10 6.5 25t-18.5 19q-22 5 -40 -11l-48 30l37 70q-63 8 -105.5 41.5t-58.5 79.5l90 32
q22 -60 108 -60q45 0 66.5 17.5t18.5 40.5q-2 17 -26.5 29t-80.5 23q-75 15 -114 42t-48 79q-11 64 33.5 118t137.5 54q43 0 78 -13.5t55 -34t30.5 -37.5t14.5 -31l-90 -31q-8 24 -33.5 39t-54.5 15q-42 0 -59 -16t-17 -35q0 -44 98 -62q85 -16 126.5 -45t45.5 -84z" />
    <glyph glyph-name="Scaron" unicode="&#x160;" horiz-adv-x="605" 
d="M35 149l91 38q9 -21 31 -42t46 -33l-42 -88q-44 20 -77 53.5t-49 71.5zM316 403q125 -35 187 -79.5t62 -130.5t-66 -144.5t-182 -58.5q-25 0 -48 3l45 94q64 -1 107 28t43 75q0 44 -41 68t-141 53q-119 34 -175 77t-53 127q2 86 67.5 139t173.5 53q49 0 89 -12l-54 -86
q-18 2 -32 2q-72 0 -107 -29t-35 -70q0 -39 36 -61.5t124 -47.5zM467 900l-112 -136h-87l-111 136h100l55 -70l54 70h101z" />
    <glyph glyph-name="scaron" unicode="&#x161;" horiz-adv-x="420" 
d="M394 154q6 -70 -44 -116.5t-133 -46.5q-78 0 -130.5 35t-71.5 88l90 32q22 -60 108 -60q45 0 66.5 17.5t18.5 40.5q-2 17 -26.5 29t-80.5 23q-75 15 -114 42t-48 79q-11 64 33.5 118t137.5 54q43 0 78 -13.5t55 -34t30.5 -37.5t14.5 -31l-90 -31q-8 24 -33.5 39t-54.5 15
q-42 0 -59 -16t-17 -35q0 -44 98 -62q86 -16 127 -45t45 -84zM362 700l-112 -136h-87l-111 136h100l55 -70l54 70h101z" />
    <glyph glyph-name="Tcommaaccent" unicode="&#x162;" horiz-adv-x="567" 
d="M236 0v469h95v-469h-95zM30 700h507v-95h-507v95zM233 -77h90l-57 -131h-62z" />
    <glyph glyph-name="tcommaaccent" unicode="&#x163;" horiz-adv-x="341" 
d="M271 107l52 -73q-27 -27 -73.5 -37t-82.5 2q-87 28 -87 156v241h-65v86h65v101l95 26v-127h99v-86h-99v-237q0 -58 30 -69q15 -6 34.5 -0.5t31.5 17.5zM137 -77h90l-57 -131h-62z" />
    <glyph glyph-name="Tcaron" unicode="&#x164;" horiz-adv-x="567" 
d="M236 0v469h95v-469h-95zM30 700h507v-95h-507v95zM441 900l-112 -136h-87l-111 136h100l55 -70l54 70h101z" />
    <glyph glyph-name="tcaron" unicode="&#x165;" horiz-adv-x="365" 
d="M271 107l52 -73q-27 -27 -73.5 -37t-82.5 2q-87 28 -87 156v241h-65v86h65v101l95 26v-127h99v-86h-99v-237q0 -58 30 -69q15 -6 34.5 -0.5t31.5 17.5zM345 696h90l-69 -168h-50z" />
    <glyph glyph-name="Tbar" unicode="&#x166;" horiz-adv-x="567" 
d="M537 604h-206v-177h148v-84h-148v-343h-95v343h-148v84h148v177h-206v96h507v-96z" />
    <glyph glyph-name="tbar" unicode="&#x167;" horiz-adv-x="338" 
d="M44 318h36v78h-65v86h65v101l95 26v-127h99v-86h-99v-78h68v-84h-68v-75q0 -58 30 -69q15 -6 34.5 -0.5t31.5 17.5l52 -73q-27 -27 -73.5 -37t-82.5 2q-87 28 -87 156v79h-36v84z" />
    <glyph glyph-name="Utilde" unicode="&#x168;" horiz-adv-x="650" 
d="M495 700h95v-344l-95 41v303zM325 88q77 0 123 46t47 145l93 -41q-12 -118 -83.5 -181.5t-179.5 -63.5q-118 0 -191.5 75.5t-73.5 213.5v207h96v-204q0 -102 45.5 -149.5t123.5 -47.5zM156 700v-113h-96v113h96zM434 902l79 -28q-57 -152 -195 -75q-33 18 -52 20t-29 -7
t-27 -35l-75 40q39 74 91 87.5t112 -22.5q29 -16 44.5 -20t29 4.5t22.5 35.5z" />
    <glyph glyph-name="utilde" unicode="&#x169;" horiz-adv-x="493" 
d="M344 482h96v-272q0 -102 -54 -159.5t-142 -57.5t-142 57.5t-54 159.5v272h95v-263q0 -67 28 -99t73 -32t72.5 32t27.5 99v263zM354 702l79 -28q-57 -152 -195 -75q-33 18 -52 20t-29 -7t-27 -35l-75 40q39 74 91 87.5t112 -22.5q29 -16 44.5 -20t29 4.5t22.5 35.5z" />
    <glyph glyph-name="Umacron" unicode="&#x16a;" horiz-adv-x="650" 
d="M495 700h95v-344l-95 41v303zM325 88q77 0 123 46t47 145l93 -41q-12 -118 -83.5 -181.5t-179.5 -63.5q-118 0 -191.5 75.5t-73.5 213.5v207h96v-204q0 -102 45.5 -149.5t123.5 -47.5zM156 700v-113h-96v113h96zM195 873h260v-84h-260v84z" />
    <glyph glyph-name="umacron" unicode="&#x16b;" horiz-adv-x="493" 
d="M344 482h96v-272q0 -102 -54 -159.5t-142 -57.5t-142 57.5t-54 159.5v272h95v-263q0 -67 28 -99t73 -32t72.5 32t27.5 99v263zM114 673h260v-84h-260v84z" />
    <glyph glyph-name="Ubreve" unicode="&#x16c;" horiz-adv-x="650" 
d="M495 700h95v-344l-95 41v303zM325 88q77 0 123 46t47 145l93 -41q-12 -118 -83.5 -181.5t-179.5 -63.5q-118 0 -191.5 75.5t-73.5 213.5v207h96v-204q0 -102 45.5 -149.5t123.5 -47.5zM156 700v-113h-96v113h96zM374 900h75q0 -51 -36 -87.5t-88 -36.5q-51 0 -87.5 36.5
t-36.5 87.5h75q0 -20 14.5 -34.5t34.5 -14.5t34.5 14.5t14.5 34.5z" />
    <glyph glyph-name="ubreve" unicode="&#x16d;" horiz-adv-x="493" 
d="M344 482h96v-272q0 -102 -54 -159.5t-142 -57.5t-142 57.5t-54 159.5v272h95v-263q0 -67 28 -99t73 -32t72.5 32t27.5 99v263zM293 700h75q0 -51 -36 -87.5t-88 -36.5q-51 0 -87.5 36.5t-36.5 87.5h75q0 -20 14.5 -34.5t34.5 -14.5t34.5 14.5t14.5 34.5z" />
    <glyph glyph-name="Uring" unicode="&#x16e;" horiz-adv-x="650" 
d="M495 700h95v-344l-95 41v303zM325 88q77 0 123 46t47 145l93 -41q-12 -118 -83.5 -181.5t-179.5 -63.5q-118 0 -191.5 75.5t-73.5 213.5v207h96v-204q0 -102 45.5 -149.5t123.5 -47.5zM156 700v-113h-96v113h96zM325 975q46 0 78 -32t32 -78t-32 -78t-78 -32
q-45 0 -77.5 32t-32.5 78t32.5 78t77.5 32zM325 822q18 0 31 12.5t13 30.5t-13 30.5t-31 12.5t-30.5 -12.5t-12.5 -30.5t12.5 -30.5t30.5 -12.5z" />
    <glyph glyph-name="uring" unicode="&#x16f;" horiz-adv-x="493" 
d="M344 482h96v-272q0 -102 -54 -159.5t-142 -57.5t-142 57.5t-54 159.5v272h95v-263q0 -67 28 -99t73 -32t72.5 32t27.5 99v263zM244 775q46 0 78 -32t32 -78t-32 -78t-78 -32q-45 0 -77.5 32t-32.5 78t32.5 78t77.5 32zM244 622q18 0 31 12.5t13 30.5t-13 30.5t-31 12.5
t-30.5 -12.5t-12.5 -30.5t12.5 -30.5t30.5 -12.5z" />
    <glyph glyph-name="Uhungarumlaut" unicode="&#x170;" horiz-adv-x="650" 
d="M495 700h95v-344l-95 41v303zM325 88q77 0 123 46t47 145l93 -41q-12 -118 -83.5 -181.5t-179.5 -63.5q-118 0 -191.5 75.5t-73.5 213.5v207h96v-204q0 -102 45.5 -149.5t123.5 -47.5zM156 700v-113h-96v113h96zM281 900h95l-101 -136h-70zM430 900h95l-101 -136h-70z
" />
    <glyph glyph-name="uhungarumlaut" unicode="&#x171;" horiz-adv-x="493" 
d="M344 482h96v-272q0 -102 -54 -159.5t-142 -57.5t-142 57.5t-54 159.5v272h95v-263q0 -67 28 -99t73 -32t72.5 32t27.5 99v263zM199 700h95l-101 -136h-70zM348 700h95l-101 -136h-70z" />
    <glyph glyph-name="Uogonek" unicode="&#x172;" horiz-adv-x="650" 
d="M325 88q77 0 122.5 46t46.5 145l94 -41q-16 -150 -132 -215q-35 -31 -60.5 -73.5t-13.5 -65.5q8 -15 30 -14.5t38 14.5v-78q-22 -9 -46 -9q-40 0 -66 24.5t-22 65.5q5 55 68 111q-32 -5 -59 -5q-118 0 -191.5 75.5t-73.5 213.5v207h95v-204q0 -102 46 -149.5t124 -47.5z
M494 700h96v-344l-96 41v303zM155 700v-113h-95v113h95z" />
    <glyph glyph-name="uogonek" unicode="&#x173;" horiz-adv-x="487" 
d="M342 482h95v-272q0 -75 -31 -127.5t-85 -74.5q-36 -16 -67.5 -56.5t-18.5 -67.5q8 -15 30.5 -14.5t38.5 14.5v-78q-22 -9 -46 -9q-40 0 -66 24.5t-22 65.5q5 58 65 106q-85 2 -137.5 59.5t-52.5 157.5v272h96v-263q0 -67 27.5 -99t72.5 -32t73 32t28 99v263z" />
    <glyph glyph-name="Wcircumflex" unicode="&#x174;" horiz-adv-x="1022" 
d="M584 700h101l-122 -291l114 -266l224 557h101l-279 -700h-93l-119 284l-119 -284h-93l-279 700h102l223 -557l114 265l-122 292h102l72 -170zM555 900l112 -136h-101l-54 70l-55 -70h-100l111 136h87z" />
    <glyph glyph-name="wcircumflex" unicode="&#x175;" horiz-adv-x="721" 
d="M611 482h100l-155 -482h-84l-111 327l-112 -327h-83l-156 482h100l102 -314l107 314h83l108 -314zM405 700l112 -136h-101l-54 70l-55 -70h-100l111 136h87z" />
    <glyph glyph-name="Ycircumflex" unicode="&#x176;" horiz-adv-x="610" 
d="M257 0v145h96v-145h-96zM481 700h109l-236 -440h-98l-236 440h109l176 -332zM349 900l112 -136h-101l-54 70l-55 -70h-100l111 136h87z" />
    <glyph glyph-name="ycircumflex" unicode="&#x177;" horiz-adv-x="467" 
d="M452 482l-166 -464q-10 -27 -18 -46.5t-18.5 -41.5t-20 -38t-21.5 -32.5t-24.5 -27t-28 -19t-32 -12.5t-37 -4t-43.5 5l16 95q43 -9 67 13t57 105l-168 467h102l117 -333l116 333h102zM298 700l112 -136h-101l-54 70l-55 -70h-100l111 136h87z" />
    <glyph glyph-name="Ydieresis" unicode="&#x178;" horiz-adv-x="610" 
d="M257 0v145h96v-145h-96zM481 700h109l-236 -440h-98l-236 440h109l176 -332zM224 878q20 0 34.5 -15t14.5 -35t-14.5 -34.5t-34.5 -14.5t-34.5 14.5t-14.5 34.5t14.5 35t34.5 15zM386 878q20 0 34.5 -15t14.5 -35t-14.5 -34.5t-34.5 -14.5q-21 0 -35.5 14.5t-14.5 34.5
t14.5 35t35.5 15z" />
    <glyph glyph-name="Zacute" unicode="&#x179;" horiz-adv-x="604" 
d="M304 700l-76 -95h-163v95h239zM153 96h416v-96h-534v96l408 509h117zM343 900h95l-101 -136h-70z" />
    <glyph glyph-name="zacute" unicode="&#x17a;" horiz-adv-x="432" 
d="M156 96h246v-96h-372v96l238 291h-224v95h349v-95zM257 700h95l-101 -136h-70z" />
    <glyph glyph-name="Zdotaccent" unicode="&#x17b;" horiz-adv-x="604" 
d="M304 700l-76 -95h-163v95h239zM153 96h416v-96h-534v96l408 509h117zM312 878q20 0 35 -15t15 -35t-15 -34.5t-35 -14.5t-34.5 14.5t-14.5 34.5t14.5 35t34.5 15z" />
    <glyph glyph-name="zdotaccent" unicode="&#x17c;" horiz-adv-x="432" 
d="M156 96h246v-96h-372v96l238 291h-224v95h349v-95zM226 678q20 0 35 -15t15 -35t-15 -34.5t-35 -14.5t-34.5 14.5t-14.5 34.5t14.5 35t34.5 15z" />
    <glyph glyph-name="Zcaron" unicode="&#x17d;" horiz-adv-x="604" 
d="M304 700l-76 -95h-163v95h239zM153 96h416v-96h-534v96l408 509h117zM479 900l-112 -136h-87l-111 136h100l55 -70l54 70h101z" />
    <glyph glyph-name="zcaron" unicode="&#x17e;" horiz-adv-x="432" 
d="M156 96h246v-96h-372v96l238 291h-224v95h349v-95zM383 700l-112 -136h-87l-111 136h100l55 -70l54 70h101z" />
    <glyph glyph-name="AEacute" unicode="&#x1fc;" horiz-adv-x="989" 
d="M575 96h370v-96h-465v193h-251l-101 -193h-108l367 700h552v-95h-364v-208h333v-93h-333v-208zM277 285h203v320h-36zM582 900h95l-101 -136h-70z" />
    <glyph glyph-name="aeacute" unicode="&#x1fd;" horiz-adv-x="842" 
d="M808 193h-336q11 -47 44 -76t84 -29q73 0 110 60l87 -42q-30 -53 -81 -83t-116 -30q-67 0 -123.5 34.5t-78.5 88.5q-24 -56 -78 -88.5t-122 -34.5q-81 -3 -126.5 39.5t-38.5 104.5q8 66 49.5 96.5t126.5 52.5q12 3 35 8t33.5 8t24 8.5t20 12.5t7.5 17q5 33 -24 50.5
t-64 14.5q-82 -3 -102 -76l-86 18q11 55 60.5 99t134.5 44q126 0 164 -95q66 94 185 94q101 0 158 -70.5t57 -177.5q0 -27 -4 -48zM597 394q-52 0 -84.5 -30.5t-42.5 -80.5h244q-18 111 -117 111zM332 206v21q-43 -12 -107 -28q-39 -10 -61 -27t-25.5 -29.5t-1.5 -25.5
q6 -43 74 -38q42 3 81.5 38.5t39.5 88.5zM450 700h95l-101 -136h-70z" />
    <glyph glyph-name="Oslashacute" unicode="&#x1fe;" 
d="M725 672l-84 -93q77 -97 77 -230q0 -149 -97 -252.5t-243 -103.5q-117 0 -204 68l-81 -89l-62 56l83 93q-76 98 -76 229q0 149 97 252.5t243 103.5q115 0 204 -68l81 90zM137 350q0 -87 44 -156l336 372q-60 44 -139 44q-106 0 -173.5 -75t-67.5 -185zM619 349
q0 88 -44 156l-337 -372q63 -45 140 -45q107 0 174 75.5t67 185.5zM421 900h95l-101 -136h-70z" />
    <glyph glyph-name="oslashacute" unicode="&#x1ff;" horiz-adv-x="540" 
d="M519 454l-58 -64q44 -66 44 -149q0 -104 -66 -176t-169 -72q-77 0 -132 40l-55 -61l-62 56l58 64q-45 65 -45 149q0 104 66 176t170 72q74 0 132 -39l54 60zM135 241q0 -38 14 -71l187 207q-28 17 -66 17q-63 0 -99 -44t-36 -109zM404 241q0 37 -13 71l-188 -207
q29 -17 67 -17q62 0 98 44t36 109zM306 700h95l-101 -136h-70z" />
    <glyph glyph-name="Scommaaccent" unicode="&#x218;" horiz-adv-x="605" 
d="M35 149l91 38q9 -21 31 -42t46 -33l-42 -88q-44 20 -77 53.5t-49 71.5zM316 403q125 -35 187 -79.5t62 -130.5t-66 -144.5t-182 -58.5q-25 0 -48 3l45 94q64 -1 107 28t43 75q0 44 -41 68t-141 53q-119 34 -175 77t-53 127q2 86 67.5 139t173.5 53q49 0 89 -12l-54 -86
q-18 2 -32 2q-72 0 -107 -29t-35 -70q0 -39 36 -61.5t124 -47.5zM245 -77h90l-57 -131h-62z" />
    <glyph glyph-name="scommaaccent" unicode="&#x219;" horiz-adv-x="420" 
d="M394 154q6 -70 -44 -116.5t-133 -46.5q-78 0 -130.5 35t-71.5 88l90 32q22 -60 108 -60q45 0 66.5 17.5t18.5 40.5q-2 17 -26.5 29t-80.5 23q-75 15 -114 42t-48 79q-11 64 33.5 118t137.5 54q43 0 78 -13.5t55 -34t30.5 -37.5t14.5 -31l-90 -31q-8 24 -33.5 39t-54.5 15
q-42 0 -59 -16t-17 -35q0 -44 98 -62q86 -16 127 -45t45 -84zM154 -77h90l-57 -131h-62z" />
    <glyph glyph-name="uni021A" unicode="&#x21a;" horiz-adv-x="567" 
d="M236 0v469h95v-469h-95zM30 700h507v-95h-507v95zM233 -77h90l-57 -131h-62z" />
    <glyph glyph-name="uni021B" unicode="&#x21b;" horiz-adv-x="341" 
d="M271 107l52 -73q-27 -27 -73.5 -37t-82.5 2q-87 28 -87 156v241h-65v86h65v101l95 26v-127h99v-86h-99v-237q0 -58 30 -69q15 -6 34.5 -0.5t31.5 17.5zM137 -77h90l-57 -131h-62z" />
    <glyph glyph-name="circumflex" unicode="&#x2c6;" horiz-adv-x="390" 
d="M239 700l112 -136h-101l-54 70l-55 -70h-100l111 136h87z" />
    <glyph glyph-name="caron" unicode="&#x2c7;" horiz-adv-x="390" 
d="M352 700l-112 -136h-87l-111 136h100l55 -70l54 70h101z" />
    <glyph glyph-name="breve" unicode="&#x2d8;" horiz-adv-x="328" 
d="M213 700h75q0 -51 -36 -87.5t-88 -36.5q-51 0 -87.5 36.5t-36.5 87.5h75q0 -20 14.5 -34.5t34.5 -14.5t34.5 14.5t14.5 34.5z" />
    <glyph glyph-name="dotaccent" unicode="&#x2d9;" horiz-adv-x="179" 
d="M89 678q20 0 35 -15t15 -35t-15 -34.5t-35 -14.5t-34.5 14.5t-14.5 34.5t14.5 35t34.5 15z" />
    <glyph glyph-name="ring" unicode="&#x2da;" horiz-adv-x="300" 
d="M150 775q46 0 78 -32t32 -78t-32 -78t-78 -32q-45 0 -77.5 32t-32.5 78t32.5 78t77.5 32zM150 622q18 0 31 12.5t13 30.5t-13 30.5t-31 12.5t-30.5 -12.5t-12.5 -30.5t12.5 -30.5t30.5 -12.5z" />
    <glyph glyph-name="ogonek" unicode="&#x2db;" horiz-adv-x="230" 
d="M106 -116q8 -14 30.5 -13.5t38.5 13.5v-77q-23 -9 -46 -9q-40 0 -66 24t-22 65q3 36 28 68t48 46h73q-37 -17 -67 -53t-17 -64z" />
    <glyph glyph-name="tilde" unicode="&#x2dc;" horiz-adv-x="458" 
d="M339 702l79 -28q-57 -152 -195 -75q-33 18 -52 20t-29 -7t-27 -35l-75 40q39 74 91 87.5t112 -22.5q29 -16 44.5 -20t29 4.5t22.5 35.5z" />
    <glyph glyph-name="hungarumlaut" unicode="&#x2dd;" horiz-adv-x="412" 
d="M122 700h95l-101 -136h-70zM271 700h95l-101 -136h-70z" />
    <glyph glyph-name="uni0401" unicode="&#x401;" horiz-adv-x="574" 
d="M236 890v-90h-90v90h90zM442 890v-90h-90v90h90zM65 96h465v-96h-465v96zM493 397v-93h-428v93h428zM524 700v-95h-459v95h459z" />
    <glyph glyph-name="uni0402" unicode="&#x402;" horiz-adv-x="699" 
d="M475 460q86 0 132.5 -57t46.5 -161v-84q0 -132 -88 -159q-65 -21 -128 19l34 77q34 -14 57 -5q29 11 29 66v77q0 67 -27.5 99t-72.5 32q-69 0 -127 -46v-318h-96v605h-205v95h507v-95h-206v-197q75 52 144 52z" />
    <glyph glyph-name="uni0403" unicode="&#x403;" horiz-adv-x="473" 
d="M65 0v113h96v-113h-96zM127 700h316v-95h-220zM65 614l96 -94v-309h-96v403zM297 900h95l-101 -136h-70z" />
    <glyph glyph-name="uni0404" unicode="&#x404;" horiz-adv-x="704" 
d="M380 705q93 0 168 -44t120 -120l-87 -43q-70 111 -201 111q-107 0 -174.5 -75t-67.5 -185q0 -111 67.5 -186t174.5 -75q132 0 201 112l87 -44q-45 -75 -120.5 -119t-167.5 -44q-146 0 -243 103.5t-97 252.5t97 252.5t243 103.5zM283 302v95h182v-95h-182z" />
    <glyph glyph-name="uni0405" unicode="&#x405;" horiz-adv-x="605" 
d="M35 149l91 38q9 -21 31 -42t46 -33l-42 -88q-44 20 -77 53.5t-49 71.5zM316 403q125 -35 187 -79.5t62 -130.5t-66 -144.5t-182 -58.5q-25 0 -48 3l45 94q64 -1 107 28t43 75q0 44 -41 68t-141 53q-119 34 -175 77t-53 127q2 86 67.5 139t173.5 53q49 0 89 -12l-54 -86
q-18 2 -32 2q-72 0 -107 -29t-35 -70q0 -39 36 -61.5t124 -47.5z" />
    <glyph glyph-name="uni0406" unicode="&#x406;" horiz-adv-x="225" 
d="M65 489h95v-489h-95v489zM65 700h95v-113h-95v113z" />
    <glyph glyph-name="uni0407" unicode="&#x407;" horiz-adv-x="260" 
d="M82 489h95v-489h-95v489zM82 700h95v-113h-95v113zM49 878q20 0 34.5 -15t14.5 -35t-14.5 -34.5t-34.5 -14.5t-34.5 14.5t-14.5 34.5t14.5 35t34.5 15zM211 878q20 0 34.5 -15t14.5 -35t-14.5 -34.5t-34.5 -14.5q-21 0 -35.5 14.5t-14.5 34.5t14.5 35t35.5 15z" />
    <glyph glyph-name="uni0408" unicode="&#x408;" horiz-adv-x="420" 
d="M260 489h95v-289q0 -102 -45.5 -154.5t-131.5 -52.5q-51 0 -96 20.5t-67 50.5l66 64q40 -40 92 -40q41 0 64 27.5t23 79.5v294zM260 700h95v-113h-95v113z" />
    <glyph glyph-name="uni0409" unicode="&#x409;" horiz-adv-x="1033" 
d="M770 434q103 0 165.5 -61t62.5 -156q0 -96 -61.5 -156.5t-166.5 -60.5h-274v605h-215q0 -222 -26.5 -367.5t-98.5 -205.5q-55 -48 -141 -35l17 94q41 -6 63 14q32 26 52 92t27.5 168.5t9.5 167t2 167.5h405v-266h179zM770 95q61 0 95.5 34t34.5 88t-34.5 88t-95.5 34
h-179v-244h179z" />
    <glyph glyph-name="uni040A" unicode="&#x40a;" horiz-adv-x="1041" 
d="M777 398q107 0 168 -51.5t61 -143.5q0 -94 -61 -148.5t-168 -54.5h-271v304h-346v-304h-95v700h95v-304h346v304h96v-302h175zM777 95q63 0 96.5 28t33.5 80q0 99 -130 99h-175v-207h175z" />
    <glyph glyph-name="uni040B" unicode="&#x40b;" horiz-adv-x="702" 
d="M478 460q86 0 132.5 -57t46.5 -161v-243h-96v234q0 67 -27.5 99t-72.5 32q-69 0 -130 -48v-316h-96v605h-205v95h507v-95h-206v-200q75 55 147 55z" />
    <glyph glyph-name="uni040C" unicode="&#x40c;" horiz-adv-x="611" 
d="M475 0l-214 305h-100v-305h-96v700h96v-303h84l208 303h122l-237 -337l258 -363h-121zM344 900h95l-101 -136h-70z" />
    <glyph glyph-name="uni040E" unicode="&#x40e;" horiz-adv-x="575" 
d="M456 700h104l-292 -700h-104l91 212l-235 488h107l178 -373zM354 900h75q0 -51 -36 -87.5t-88 -36.5q-51 0 -87.5 36.5t-36.5 87.5h75q0 -20 14.5 -34.5t34.5 -14.5t34.5 14.5t14.5 34.5z" />
    <glyph glyph-name="uni040F" unicode="&#x40f;" horiz-adv-x="635" 
d="M474 700h96v-700h-205v-127h-96v127h-204v700h95v-605h314v605z" />
    <glyph glyph-name="uni0410" unicode="&#x410;" horiz-adv-x="636" 
d="M364 700l252 -700h-105l-193 557l-193 -557h-105l251 700h93z" />
    <glyph glyph-name="uni0411" unicode="&#x411;" horiz-adv-x="587" 
d="M329 423q103 0 163 -58t60 -153q0 -94 -62 -153t-161 -59h-264v423h264zM329 95q60 0 92 31.5t32 85.5q0 53 -32 84.5t-92 31.5h-168v-233h168zM483 700v-95h-418v95h418z" />
    <glyph glyph-name="uni0412" unicode="&#x412;" horiz-adv-x="592" 
d="M331 95q60 0 94 32t34 85q0 52 -33.5 82.5t-94.5 30.5h-171v-230h171zM447 381q51 -22 80.5 -65.5t29.5 -103.5q0 -94 -63 -153t-163 -59h-266v415h247q50 0 77.5 27.5t27.5 68.5q0 42 -22.5 68t-67.5 26h-262v95h262q89 0 139 -54.5t50 -134.5q0 -75 -69 -130z" />
    <glyph glyph-name="uni0413" unicode="&#x413;" horiz-adv-x="473" 
d="M65 0v113h96v-113h-96zM127 700h316v-95h-220zM65 614l96 -94v-309h-96v403z" />
    <glyph glyph-name="uni0414" unicode="&#x414;" horiz-adv-x="695" 
d="M665 605h-71v-510h71v-222h-95v127h-449v-127h-96v222h61q82 92 104 362h96q-20 -240 -85 -362h298v510h-302v95h468v-95z" />
    <glyph glyph-name="uni0415" unicode="&#x415;" horiz-adv-x="574" 
d="M65 96h465v-96h-465v96zM493 397v-93h-428v93h428zM524 700v-95h-459v95h459z" />
    <glyph glyph-name="uni0416" unicode="&#x416;" horiz-adv-x="970" 
d="M937 700l-404 -479v-221h-96v221l-405 479h126l327 -388l326 388h126zM533 700v-202h-96v202h96zM737 306l218 -306h-118l-164 231zM15 0l218 306l65 -75l-165 -231h-118z" />
    <glyph glyph-name="uni0417" unicode="&#x417;" horiz-adv-x="578" 
d="M424 370q55 -17 87 -61.5t32 -104.5q1 -94 -69.5 -152.5t-186.5 -58.5q-88 0 -158 38t-100 84l76 50q23 -31 70.5 -55.5t109.5 -24.5q75 0 118 34.5t43 86.5q0 110 -159 110h-97v90h85q67 0 100.5 29t35.5 74q2 44 -33 76.5t-96 32.5h-96v-80h-90v162h188
q98 0 159.5 -50.5t61.5 -131.5q0 -48 -23 -88t-58 -60z" />
    <glyph glyph-name="uni0418" unicode="&#x418;" horiz-adv-x="661" 
d="M65 700h96v-465l426 471h9v-706h-96v460l-426 -467h-9v707z" />
    <glyph glyph-name="uni0419" unicode="&#x419;" horiz-adv-x="661" 
d="M456 890v-89h-255v89h255zM161 700h-96v-707h9l426 467v-460h96v706h-9l-426 -471v465z" />
    <glyph glyph-name="uni041A" unicode="&#x41a;" horiz-adv-x="611" 
d="M475 0l-214 305h-100v-305h-96v700h96v-303h84l208 303h122l-237 -337l258 -363h-121z" />
    <glyph glyph-name="uni041B" unicode="&#x41b;" horiz-adv-x="692" 
d="M662 700v-95h-71v-290h-95v290h-215q0 -223 -26 -368.5t-98 -205.5q-55 -48 -142 -34l17 94q41 -6 63 14q32 26 52 92t27.5 168.5t9.5 167t2 167.5h476zM496 0v188h95v-188h-95z" />
    <glyph glyph-name="uni041C" unicode="&#x41c;" horiz-adv-x="816" 
d="M742 706h9v-706h-95v453l-244 -292h-9l-243 292v-453h-95v706h8l335 -396z" />
    <glyph glyph-name="uni041D" unicode="&#x41d;" horiz-adv-x="667" 
d="M65 0v188h95v-188h-95zM506 700h96v-188h-96v188zM160 397h442v-397h-96v304h-441v396h95v-303z" />
    <glyph glyph-name="uni041E" unicode="&#x41e;" 
d="M379 706q147 0 243.5 -103.5t96.5 -253.5t-96.5 -253t-243.5 -103q-146 0 -242.5 103.5t-96.5 253.5q0 149 96.5 252.5t242.5 103.5zM379 88q107 0 174.5 75.5t67.5 185.5q0 111 -67.5 186.5t-174.5 75.5q-106 0 -173.5 -75t-67.5 -186t67.5 -186.5t173.5 -75.5zM379 410
q25 0 43 -18t18 -43t-18 -42.5t-43 -17.5t-42.5 17.5t-17.5 42.5t17.5 43t42.5 18z" />
    <glyph glyph-name="uni041F" unicode="&#x41f;" horiz-adv-x="688" 
d="M65 0v344h95v-344h-95zM658 700v-95h-71v-605h-95v605h-427v95h593z" />
    <glyph glyph-name="uni0420" unicode="&#x420;" horiz-adv-x="591" 
d="M327 700q104 0 166.5 -64.5t62.5 -161.5q0 -96 -63 -160.5t-166 -64.5h-167v-249h-95v344h262q60 0 95 38t35 92q0 55 -34.5 93t-95.5 38h-262v95h262z" />
    <glyph glyph-name="uni0421" unicode="&#x421;" horiz-adv-x="703" 
d="M380 88q65 0 117 30t84 82l88 -44q-45 -75 -121 -119t-168 -44q-146 0 -243 103.5t-97 252.5q0 150 97 253.5t243 103.5q93 0 168.5 -44t120.5 -120l-88 -43q-32 52 -84 81.5t-117 29.5q-107 0 -174.5 -75t-67.5 -186q0 -110 67.5 -185.5t174.5 -75.5zM322 348
q0 25 17.5 43t42.5 18t43 -18t18 -43t-18 -42.5t-43 -17.5t-42.5 17.5t-17.5 42.5z" />
    <glyph glyph-name="uni0422" unicode="&#x422;" horiz-adv-x="567" 
d="M236 0v469h95v-469h-95zM30 700h507v-95h-507v95z" />
    <glyph glyph-name="uni0423" unicode="&#x423;" horiz-adv-x="575" 
d="M456 700h104l-292 -700h-104l91 212l-235 488h107l178 -373z" />
    <glyph glyph-name="uni0424" unicode="&#x424;" horiz-adv-x="817" 
d="M777 349q0 -131 -89 -206.5t-232 -86.5v-85h-95v85q-143 11 -232 86.5t-89 206.5t89 207t232 88v85h95v-85q143 -12 232 -88t89 -207zM456 151q102 9 162.5 57.5t60.5 140.5q0 103 -74 152t-197 49q-122 0 -196 -49t-74 -152q0 -92 60.5 -140.5t162.5 -57.5v189h95v-189z
" />
    <glyph glyph-name="uni0425" unicode="&#x425;" horiz-adv-x="631" 
d="M40 700h117l100 -161l-56 -92zM379 364l232 -364h-117l-227 364l207 336h118zM20 0l176 276l58 -90l-117 -186h-117z" />
    <glyph glyph-name="uni0426" unicode="&#x426;" horiz-adv-x="686" 
d="M570 700v-480h-96v480h96zM160 95h496v-222h-95v127h-496v489h95v-394zM160 700v-113h-95v113h95z" />
    <glyph glyph-name="uni0427" unicode="&#x427;" horiz-adv-x="614" 
d="M454 700h95v-700h-95v256h-404v444h96v-349h308v349z" />
    <glyph glyph-name="uni0428" unicode="&#x428;" horiz-adv-x="966" 
d="M531 700v-480h-95v480h95zM806 700h95v-700h-836v700h96v-605h645v605z" />
    <glyph glyph-name="uni0429" unicode="&#x429;" horiz-adv-x="1017" 
d="M901 95h86v-222h-95v127h-827v489h95v-394h645v605h96v-605zM531 700v-480h-96v480h96zM160 700v-113h-95v113h95z" />
    <glyph glyph-name="uni042A" unicode="&#x42a;" horiz-adv-x="681" 
d="M417 451q103 0 166 -64.5t63 -160.5q0 -97 -62.5 -161.5t-166.5 -64.5h-265v159h96v-64h169q61 0 95.5 38t34.5 93q0 54 -35 92t-95 38h-265v249h-127v95h223v-249h169z" />
    <glyph glyph-name="uni042B" unicode="&#x42b;" horiz-adv-x="794" 
d="M633 489h96v-489h-96v489zM330 451q103 0 165.5 -64.5t62.5 -160.5q0 -97 -62 -161.5t-166 -64.5h-265v159h95v-64h170q61 0 95.5 38t34.5 93q0 54 -35 92t-95 38h-265v344h95v-249h170zM633 700h96v-113h-96v113z" />
    <glyph glyph-name="uni042C" unicode="&#x42c;" horiz-adv-x="594" 
d="M330 451q103 0 166 -64.5t63 -160.5q0 -97 -62.5 -161.5t-166.5 -64.5h-265v159h96v-64h169q61 0 96 38t35 93q0 54 -35.5 92t-95.5 38h-265v344h96v-249h169z" />
    <glyph glyph-name="uni042D" unicode="&#x42d;" horiz-adv-x="698" 
d="M319 705q146 0 242.5 -103.5t96.5 -252.5t-96.5 -252.5t-242.5 -103.5q-92 0 -167.5 44t-120.5 119l87 44q69 -112 201 -112q107 0 174 75t67 186q0 110 -67 185t-174 75q-131 0 -201 -111l-87 43q45 76 120 120t168 44zM416 398v-96h-182v96h182z" />
    <glyph glyph-name="uni042E" unicode="&#x42e;" horiz-adv-x="1007" 
d="M627 706q146 0 243 -103.5t97 -253.5q0 -149 -97 -252.5t-243 -103.5q-135 0 -228.5 88.5t-108.5 222.5h-129v-304h-96v700h96v-304h129q15 133 109 221.5t228 88.5zM627 88q106 0 173.5 75.5t67.5 185.5q0 111 -67.5 186.5t-173.5 75.5q-107 0 -174 -75t-67 -186
t67 -186.5t174 -75.5zM627 411q25 0 42.5 -18t17.5 -43t-17.5 -42.5t-42.5 -17.5t-43 17.5t-18 42.5q0 26 18 43.5t43 17.5z" />
    <glyph glyph-name="uni042F" unicode="&#x42f;" horiz-adv-x="606" 
d="M541 541h-95v64h-167q-61 0 -95.5 -38t-34.5 -93q0 -54 35 -92t95 -38h262v-344h-95v249h-165l-141 -249h-110l152 267q-62 26 -96.5 81.5t-34.5 125.5q0 97 62 161.5t166 64.5h262v-159z" />
    <glyph glyph-name="uni0430" unicode="&#x430;" horiz-adv-x="464" 
d="M241 490q81 0 129.5 -43t48.5 -134v-313h-94v57q-48 -56 -134 -64q-81 -7 -126.5 37t-38.5 107q8 66 49.5 96.5t126.5 52.5q12 3 35 8t33.5 8t24 8.5t20 12.5t7.5 17q5 33 -24 50.5t-64 14.5q-82 -3 -102 -76l-86 18q11 55 60.5 99t134.5 44zM325 206v21
q-43 -12 -107 -28q-39 -10 -61 -27t-25.5 -29.5t-1.5 -25.5q6 -43 74 -38q42 3 81.5 38.5t39.5 88.5z" />
    <glyph glyph-name="uni0431" unicode="&#x431;" horiz-adv-x="512" 
d="M266 475q103 0 159.5 -66t56.5 -171t-62 -175t-164 -70q-98 0 -159.5 68t-65.5 184q-11 344 187 449q35 19 97.5 40t89.5 45l65 -67q-36 -38 -117 -66t-96 -36q-109 -58 -135 -195q65 60 144 60zM255 88q62 0 93.5 42t31.5 108t-31.5 106.5t-93.5 40.5q-63 0 -94.5 -40.5
t-31.5 -106.5t32 -108t94 -42z" />
    <glyph glyph-name="uni0432" unicode="&#x432;" horiz-adv-x="469" 
d="M365 262q32 -17 53 -46.5t21 -65.5q0 -63 -41 -106.5t-112 -43.5h-241v482h213q75 0 114 -37.5t39 -95.5q0 -50 -46 -87zM258 386h-117v-92h117q26 0 42 14t16 35q0 43 -58 43zM286 95q26 0 41.5 17.5t15.5 40.5q0 24 -14.5 41t-42.5 17h-145v-116h145z" />
    <glyph glyph-name="uni0433" unicode="&#x433;" horiz-adv-x="382" 
d="M352 482v-96h-211v-386h-96v482h307z" />
    <glyph glyph-name="uni0434" unicode="&#x434;" horiz-adv-x="552" 
d="M456 95h71v-210h-95v115h-322v-115h-95v210h55q41 66 56 158t15 229h315v-387zM178 95h183v291h-126q-8 -181 -57 -291z" />
    <glyph glyph-name="uni0435" unicode="&#x435;" horiz-adv-x="507" 
d="M473 193h-336q11 -47 44 -76t84 -29q73 0 110 60l87 -42q-30 -53 -81 -83t-116 -30q-103 0 -169 72t-66 176t64.5 176t167.5 72q101 0 158 -70.5t57 -177.5q0 -27 -4 -48zM262 394q-52 0 -84.5 -30.5t-42.5 -80.5h244q-18 111 -117 111z" />
    <glyph glyph-name="uni0436" unicode="&#x436;" horiz-adv-x="742" 
d="M614 0l-135 196h-60v-196h-96v196h-61l-134 -196h-113l173 251l-165 231h112l138 -196h50v196h96v-196h49l138 196h113l-165 -231l173 -251h-113z" />
    <glyph glyph-name="uni0437" unicode="&#x437;" horiz-adv-x="426" 
d="M300 248q39 -7 67.5 -37t28.5 -76q0 -60 -51 -102t-142 -42q-62 0 -114 27.5t-74 61.5l68 56q16 -22 50 -38.5t72 -17.5q48 -1 71 19t23 45q0 26 -23.5 45t-77.5 19h-54v71h53q43 0 62.5 18.5t19.5 43.5q0 59 -78 59q-57 0 -107 -42l-59 58q27 30 71.5 51.5t97.5 21.5
q73 0 122 -36.5t49 -96.5q0 -75 -75 -108z" />
    <glyph glyph-name="uni0438" unicode="&#x438;" horiz-adv-x="494" 
d="M354 482h90v-482h-96v314l-214 -314h-89v482h95v-314z" />
    <glyph glyph-name="uni0439" unicode="&#x439;" horiz-adv-x="494" 
d="M250 532q-58 0 -95.5 37t-37.5 96h75q0 -25 16 -41.5t42 -16.5t42 16.5t16 41.5h76q0 -58 -37.5 -95.5t-96.5 -37.5zM354 482h90v-482h-96v314l-214 -314h-89v482h95v-314z" />
    <glyph glyph-name="uni043A" unicode="&#x43a;" horiz-adv-x="469" 
d="M341 0l-131 196h-70v-196h-95v482h95v-196h59l133 196h113l-160 -231l169 -251h-113z" />
    <glyph glyph-name="uni043B" unicode="&#x43b;" horiz-adv-x="496" 
d="M130 482h316v-482h-96v386h-120q-4 -158 -20.5 -242.5t-63.5 -123.5q-42 -33 -131 -26l20 93q30 -6 45 7q12 10 21.5 29t14.5 48t8.5 54t4.5 66t1.5 64.5t0 68t-0.5 58.5z" />
    <glyph glyph-name="uni043C" unicode="&#x43c;" horiz-adv-x="608" 
d="M474 482h84v-482h-95v314l-134 -204h-54l-134 204v-314h-96v482h84l173 -257z" />
    <glyph glyph-name="uni043D" unicode="&#x43d;" horiz-adv-x="492" 
d="M347 482h95v-482h-95v196h-206v-196h-96v482h96v-196h206v196z" />
    <glyph glyph-name="uni043E" unicode="&#x43e;" horiz-adv-x="530" 
d="M265 489q103 0 169 -72t66 -176t-66 -176t-169 -72t-169 72t-66 176t66 176t169 72zM265 88q63 0 98.5 44t35.5 109q0 66 -35.5 109.5t-98.5 43.5t-98.5 -44t-35.5 -109t35.5 -109t98.5 -44z" />
    <glyph glyph-name="uni043F" unicode="&#x43f;" horiz-adv-x="486" 
d="M45 482h391v-482h-96v386h-200v-386h-95v482z" />
    <glyph glyph-name="uni0440" unicode="&#x440;" horiz-adv-x="542" 
d="M288 489q102 0 163 -71.5t61 -176.5t-61 -176.5t-163 -71.5q-91 0 -147 59v-270h-96v700h96v-52q56 59 147 59zM277 88q63 0 97 43.5t34 109.5q0 65 -34.5 109t-96.5 44q-63 0 -97.5 -43.5t-34.5 -109.5t34.5 -109.5t97.5 -43.5z" />
    <glyph glyph-name="uni0441" unicode="&#x441;" horiz-adv-x="483" 
d="M265 88q73 0 110 60l88 -42q-30 -52 -81.5 -82.5t-116.5 -30.5q-103 0 -169 72t-66 176t66 176t169 72q65 0 116.5 -30.5t81.5 -82.5l-88 -42q-37 60 -110 60q-63 0 -98.5 -44t-35.5 -109t35.5 -109t98.5 -44z" />
    <glyph glyph-name="uni0442" unicode="&#x442;" horiz-adv-x="433" 
d="M408 482v-96h-144v-386h-95v386h-144v96h383z" />
    <glyph glyph-name="uni0443" unicode="&#x443;" horiz-adv-x="467" 
d="M452 482l-166 -464q-10 -27 -18 -46.5t-18.5 -41.5t-20 -38t-21.5 -32.5t-24.5 -27t-28 -19t-32 -12.5t-37 -4t-43.5 5l16 95q43 -9 67 13t57 105l-168 467h102l117 -333l116 333h102z" />
    <glyph glyph-name="uni0444" unicode="&#x444;" horiz-adv-x="652" 
d="M622 241q0 -108 -68.5 -171t-179.5 -75v-213h-95v213q-112 12 -180.5 75t-68.5 171t68.5 171t180.5 75v213h95v-213q111 -12 179.5 -75t68.5 -171zM129 241q0 -134 150 -150v300q-150 -16 -150 -150zM374 91q150 17 150 150q0 134 -150 150v-300z" />
    <glyph glyph-name="uni0445" unicode="&#x445;" horiz-adv-x="479" 
d="M464 0h-117l-108 174l-107 -174h-117l159 251l-146 231h117l94 -154l95 154h117l-147 -231z" />
    <glyph glyph-name="uni0446" unicode="&#x446;" horiz-adv-x="525" 
d="M429 95h71v-209h-95v114h-360v482h95v-387h194v387h95v-387z" />
    <glyph glyph-name="uni0447" unicode="&#x447;" horiz-adv-x="458" 
d="M313 482h95v-482h-95v175q-68 -30 -144 -22q-78 7 -108.5 55t-30.5 142v132h95v-132q0 -46 10.5 -71.5t44.5 -34.5q49 -7 81 -0.5t52 18.5v220z" />
    <glyph glyph-name="uni0448" unicode="&#x448;" horiz-adv-x="714" 
d="M569 482h95v-482h-619v482h95v-387h167v387h95v-387h167v387z" />
    <glyph glyph-name="uni0449" unicode="&#x449;" horiz-adv-x="760" 
d="M664 95h71v-209h-95v114h-595v482h95v-387h167v387h95v-387h167v387h95v-387z" />
    <glyph glyph-name="uni044A" unicode="&#x44a;" horiz-adv-x="550" 
d="M349 312q78 0 124.5 -43.5t46.5 -112.5q0 -67 -48 -111.5t-120 -44.5h-209v386h-118v96h214v-170h110zM352 95q30 0 49.5 17t19.5 44q0 28 -19 44.5t-53 16.5h-110v-122h113z" />
    <glyph glyph-name="uni044B" unicode="&#x44b;" horiz-adv-x="630" 
d="M485 482h95v-482h-95v482zM251 312q77 0 123.5 -44t46.5 -112q0 -67 -48 -111.5t-120 -44.5h-208v482h95v-170h111zM253 95q30 0 50 17t20 44q0 28 -19.5 44.5t-52.5 16.5h-111v-122h113z" />
    <glyph glyph-name="uni044C" unicode="&#x44c;" horiz-adv-x="452" 
d="M251 312q78 0 124.5 -43.5t46.5 -112.5q0 -67 -48 -111.5t-120 -44.5h-209v482h96v-170h110zM254 95q30 0 49.5 17t19.5 44q0 28 -19 44.5t-53 16.5h-110v-122h113z" />
    <glyph glyph-name="uni044D" unicode="&#x44d;" horiz-adv-x="485" 
d="M223 489q103 0 167.5 -72t64.5 -176t-64.5 -176t-167.5 -72q-65 0 -116.5 30.5t-81.5 82.5l88 42q37 -60 110 -60q51 0 84.5 29.5t44.5 78.5h-192v90h192q-11 49 -44.5 78.5t-84.5 29.5q-73 0 -110 -60l-88 42q30 52 81.5 82.5t116.5 30.5z" />
    <glyph glyph-name="uni044E" unicode="&#x44e;" horiz-adv-x="710" 
d="M445 489q103 0 169 -72t66 -176t-66 -176t-169 -72q-91 0 -154 57.5t-78 145.5h-72v-196h-96v482h96v-196h72q15 89 77.5 146t154.5 57zM445 88q63 0 98.5 44t35.5 109t-35.5 109t-98.5 44t-98.5 -43.5t-35.5 -109.5q0 -65 35.5 -109t98.5 -44z" />
    <glyph glyph-name="uni044F" unicode="&#x44f;" horiz-adv-x="451" 
d="M192 482h209v-482h-96v170h-84l-96 -170h-110l104 183q-45 18 -70 55.5t-25 87.5q0 67 48 111.5t120 44.5zM195 265h110v121h-113q-30 0 -50 -16.5t-20 -43.5q0 -28 19.5 -44.5t53.5 -16.5z" />
    <glyph glyph-name="uni0451" unicode="&#x451;" horiz-adv-x="507" 
d="M165 558q-20 0 -34.5 14.5t-14.5 35.5q0 20 14.5 34.5t34.5 14.5q21 0 35.5 -14.5t14.5 -34.5q0 -21 -14.5 -35.5t-35.5 -14.5zM348 558q-20 0 -35 14.5t-15 35.5q0 20 15 34.5t35 14.5t34.5 -14.5t14.5 -34.5q0 -21 -14.5 -35.5t-34.5 -14.5zM473 193h-336
q11 -47 44 -76t84 -29q73 0 110 60l87 -42q-30 -53 -81 -83t-116 -30q-103 0 -169 72t-66 176t64.5 176t167.5 72q101 0 158 -70.5t57 -177.5q0 -27 -4 -48zM262 394q-52 0 -84.5 -30.5t-42.5 -80.5h244q-18 111 -117 111z" />
    <glyph glyph-name="uni0452" unicode="&#x452;" horiz-adv-x="522" 
d="M477 272v-300q0 -132 -88 -159q-64 -22 -128 19l34 77q34 -14 57 -5q29 11 29 66v293q0 67 -27.5 99t-72.5 32q-48 0 -77.5 -30.5t-29.5 -94.5v-269h-95v537h-74v83h74v80h95v-80h107v-83h-107v-101q50 53 124 53q86 0 132.5 -56.5t46.5 -160.5z" />
    <glyph glyph-name="uni0453" unicode="&#x453;" horiz-adv-x="382" 
d="M352 482v-96h-211v-386h-96v482h307zM239 700h95l-101 -136h-70z" />
    <glyph glyph-name="uni0454" unicode="&#x454;" horiz-adv-x="478" 
d="M266 88q73 0 110 60l87 -42q-30 -53 -81 -83t-116 -30q-104 0 -170 72t-66 176t66 176t170 72q65 0 116 -30t81 -83l-87 -42q-37 60 -110 60q-52 0 -85.5 -29.5t-44.5 -78.5h192v-90h-192q11 -49 44.5 -78.5t85.5 -29.5z" />
    <glyph glyph-name="uni0455" unicode="&#x455;" horiz-adv-x="420" 
d="M394 154q6 -70 -44 -116.5t-133 -46.5q-78 0 -130.5 35t-71.5 88l90 32q22 -60 108 -60q45 0 66.5 17.5t18.5 40.5q-2 17 -26.5 29t-80.5 23q-75 15 -114 42t-48 79q-11 64 33.5 118t137.5 54q43 0 78 -13.5t55 -34t30.5 -37.5t14.5 -31l-90 -31q-8 24 -33.5 39t-54.5 15
q-42 0 -59 -16t-17 -35q0 -44 98 -62q86 -16 127 -45t45 -84z" />
    <glyph glyph-name="uni0456" unicode="&#x456;" horiz-adv-x="206" 
d="M53 0v482h95v-482h-95zM101 556q-23 0 -39.5 16.5t-16.5 39.5t16.5 39t39.5 16t39 -16.5t16 -38.5q0 -23 -16 -39.5t-39 -16.5z" />
    <glyph glyph-name="uni0457" unicode="&#x457;" horiz-adv-x="250" 
d="M87 0v482h95v-482h-95zM54 678q20 0 34.5 -15t14.5 -35t-14.5 -34.5t-34.5 -14.5t-34.5 14.5t-14.5 34.5t14.5 35t34.5 15zM216 678q20 0 34.5 -15t14.5 -35t-14.5 -34.5t-34.5 -14.5q-21 0 -35.5 14.5t-14.5 34.5t14.5 35t35.5 15z" />
    <glyph glyph-name="uni0458" unicode="&#x458;" horiz-adv-x="219" 
d="M65 482h96v-542q0 -131 -88 -159q-66 -21 -128 20l34 76q33 -14 57 -5q29 12 29 66v544zM118 556q-23 0 -39 16.5t-16 39.5q0 22 16.5 38.5t38.5 16.5q23 0 39.5 -16t16.5 -39t-16.5 -39.5t-39.5 -16.5z" />
    <glyph glyph-name="uni0459" unicode="&#x459;" horiz-adv-x="758" 
d="M563 312q77 0 123.5 -44t46.5 -112q0 -67 -47.5 -111.5t-119.5 -44.5h-215v387h-125q-4 -158 -20.5 -243t-64.5 -124q-40 -33 -126 -26l20 93q31 -6 46 7q12 10 21.5 29t14.5 48t8.5 54t4.5 66t1.5 64.5t0 68t-0.5 58.5h315v-170h117zM566 95q30 0 49.5 17t19.5 44
q0 28 -19 44.5t-53 16.5h-117v-122h120z" />
    <glyph glyph-name="uni045A" unicode="&#x45a;" horiz-adv-x="745" 
d="M549 286q80 0 125.5 -36t45.5 -102q0 -67 -47.5 -107.5t-120.5 -40.5h-209v196h-202v-196h-96v482h96v-196h202v196h96v-196h110zM552 93q31 0 50.5 14t19.5 41q0 48 -73 48h-110v-103h113z" />
    <glyph glyph-name="uni045B" unicode="&#x45b;" horiz-adv-x="523" 
d="M299 489q86 0 132.5 -56.5t46.5 -160.5v-272h-96v263q0 67 -27.5 99t-72.5 32q-48 0 -77.5 -30.5t-29.5 -94.5v-269h-95v537h-75v83h75v80h95v-80h106v-83h-106v-101q50 53 124 53z" />
    <glyph glyph-name="uni045C" unicode="&#x45c;" horiz-adv-x="469" 
d="M341 0l-131 196h-70v-196h-95v482h95v-196h59l133 196h113l-160 -231l169 -251h-113zM282 700h95l-101 -136h-70z" />
    <glyph glyph-name="uni045E" unicode="&#x45e;" horiz-adv-x="467" 
d="M452 482l-166 -464q-10 -27 -18 -46.5t-18.5 -41.5t-20 -38t-21.5 -32.5t-24.5 -27t-28 -19t-32 -12.5t-37 -4t-43.5 5l16 95q43 -9 67 13t57 105l-168 467h102l117 -333l116 333h102zM285 700h75q0 -51 -36 -87.5t-88 -36.5q-51 0 -87.5 36.5t-36.5 87.5h75
q0 -20 14.5 -34.5t34.5 -14.5t34.5 14.5t14.5 34.5z" />
    <glyph glyph-name="uni045F" unicode="&#x45f;" horiz-adv-x="480" 
d="M335 482h95v-482h-145v-115h-95v115h-145v482h96v-387h194v387z" />
    <glyph glyph-name="uni0490" unicode="&#x490;" horiz-adv-x="475" 
d="M344 827h96v-222h-280v-605h-95v700h279v127z" />
    <glyph glyph-name="uni0491" unicode="&#x491;" horiz-adv-x="382" 
d="M352 601v-214h-212v-387h-95v482h211v119h96z" />
    <glyph glyph-name="Wgrave" unicode="&#x1e80;" horiz-adv-x="1022" 
d="M584 700h101l-122 -291l114 -266l224 557h101l-279 -700h-93l-119 284l-119 -284h-93l-279 700h102l223 -557l114 265l-122 292h102l72 -170zM470 900l76 -136h-70l-101 136h95z" />
    <glyph glyph-name="wgrave" unicode="&#x1e81;" horiz-adv-x="721" 
d="M611 482h100l-155 -482h-84l-111 327l-112 -327h-83l-156 482h100l102 -314l107 314h83l108 -314zM320 700l76 -136h-70l-101 136h95z" />
    <glyph glyph-name="Wacute" unicode="&#x1e82;" horiz-adv-x="1022" 
d="M584 700h101l-122 -291l114 -266l224 557h101l-279 -700h-93l-119 284l-119 -284h-93l-279 700h102l223 -557l114 265l-122 292h102l72 -170zM561 900h95l-101 -136h-70z" />
    <glyph glyph-name="wacute" unicode="&#x1e83;" horiz-adv-x="721" 
d="M611 482h100l-155 -482h-84l-111 327l-112 -327h-83l-156 482h100l102 -314l107 314h83l108 -314zM411 700h95l-101 -136h-70z" />
    <glyph glyph-name="Wdieresis" unicode="&#x1e84;" horiz-adv-x="1022" 
d="M584 700h101l-122 -291l114 -266l224 557h101l-279 -700h-93l-119 284l-119 -284h-93l-279 700h102l223 -557l114 265l-122 292h102l72 -170zM430 878q20 0 34.5 -15t14.5 -35t-14.5 -34.5t-34.5 -14.5t-34.5 14.5t-14.5 34.5t14.5 35t34.5 15zM592 878q20 0 34.5 -15
t14.5 -35t-14.5 -34.5t-34.5 -14.5q-21 0 -35.5 14.5t-14.5 34.5t14.5 35t35.5 15z" />
    <glyph glyph-name="wdieresis" unicode="&#x1e85;" horiz-adv-x="721" 
d="M611 482h100l-155 -482h-84l-111 327l-112 -327h-83l-156 482h100l102 -314l107 314h83l108 -314zM280 678q20 0 34.5 -15t14.5 -35t-14.5 -34.5t-34.5 -14.5t-34.5 14.5t-14.5 34.5t14.5 35t34.5 15zM442 678q20 0 34.5 -15t14.5 -35t-14.5 -34.5t-34.5 -14.5
q-21 0 -35.5 14.5t-14.5 34.5t14.5 35t35.5 15z" />
    <glyph glyph-name="Germandbl" unicode="&#x1e9e;" horiz-adv-x="555" 
d="M348 441q81 -21 126.5 -77t45.5 -133q0 -104 -70 -171t-198 -67v95q76 0 124.5 42t48.5 104q0 65 -45 100t-128 35v84l97 154h-72q-62 0 -91 -34t-29 -112v-461h-92v461q0 126 52.5 182.5t162.5 56.5h171v-93z" />
    <glyph glyph-name="Ygrave" unicode="&#x1ef2;" horiz-adv-x="610" 
d="M257 0v145h96v-145h-96zM481 700h109l-236 -440h-98l-236 440h109l176 -332zM275 900l76 -136h-70l-101 136h95z" />
    <glyph glyph-name="ygrave" unicode="&#x1ef3;" horiz-adv-x="467" 
d="M452 482l-166 -464q-10 -27 -18 -46.5t-18.5 -41.5t-20 -38t-21.5 -32.5t-24.5 -27t-28 -19t-32 -12.5t-37 -4t-43.5 5l16 95q43 -9 67 13t57 105l-168 467h102l117 -333l116 333h102zM223 700l76 -136h-70l-101 136h95z" />
    <glyph glyph-name="endash" unicode="&#x2013;" horiz-adv-x="508" 
d="M60 348h388v-84h-388v84z" />
    <glyph glyph-name="emdash" unicode="&#x2014;" horiz-adv-x="595" 
d="M60 348h475v-84h-475v84z" />
    <glyph glyph-name="quoteleft" unicode="&#x2018;" horiz-adv-x="210" 
d="M50 538l70 168h50l-29 -168h-91z" />
    <glyph glyph-name="quoteright" unicode="&#x2019;" horiz-adv-x="209" 
d="M79 706h90l-69 -168h-50z" />
    <glyph glyph-name="quotesinglbase" unicode="&#x201a;" horiz-adv-x="209" 
d="M79 10h90l-69 -168h-50z" />
    <glyph glyph-name="quotedblleft" unicode="&#x201c;" horiz-adv-x="344" 
d="M254 706h50l-29 -168h-91zM50 538l70 168h50l-29 -168h-91z" />
    <glyph glyph-name="quotedblright" unicode="&#x201d;" horiz-adv-x="343" 
d="M50 538l29 168h90l-69 -168h-50zM213 706h90l-69 -168h-50z" />
    <glyph glyph-name="quotedblbase" unicode="&#x201e;" horiz-adv-x="343" 
d="M50 -158l29 168h90l-69 -168h-50zM213 10h90l-69 -168h-50z" />
    <glyph glyph-name="dagger" unicode="&#x2020;" horiz-adv-x="440" 
d="M400 534v-84h-132v-450h-96v450h-132v84h132v166h96v-166h132z" />
    <glyph glyph-name="daggerdbl" unicode="&#x2021;" horiz-adv-x="440" 
d="M399 450h-132v-200h132v-83h-132v-167h-95v167h-132v83h132v200h-132v84h132v166h95v-166h132v-84z" />
    <glyph glyph-name="ellipsis" unicode="&#x2026;" horiz-adv-x="601" 
d="M106 -28q-23 0 -39.5 16.5t-16.5 39.5t16.5 39t39.5 16q22 0 38.5 -16.5t16.5 -38.5q0 -23 -16 -39.5t-39 -16.5zM296 -28q-23 0 -39.5 16.5t-16.5 39.5t16.5 39t39.5 16q22 0 38.5 -16.5t16.5 -38.5q0 -23 -16 -39.5t-39 -16.5zM486 -28q-23 0 -39.5 16.5t-16.5 39.5
t16.5 39t39.5 16q22 0 38.5 -16.5t16.5 -38.5q0 -23 -16 -39.5t-39 -16.5z" />
    <glyph glyph-name="perthousand" unicode="&#x2030;" horiz-adv-x="1053" 
d="M523 700h107l-438 -700h-107zM317 563q0 -59 -42 -101.5t-101 -42.5t-101.5 42.5t-42.5 101.5t42.5 101t101.5 42t101 -42t42 -101zM108 563q0 -27 19.5 -46.5t46.5 -19.5t46 19.5t19 46.5t-19 46t-46 19t-46.5 -19t-19.5 -46zM539 280q59 0 101.5 -42.5t42.5 -101.5
t-42.5 -101t-101.5 -42t-101.5 42t-42.5 101t42.5 101.5t101.5 42.5zM539 71q27 0 46 19t19 46t-19 46.5t-46 19.5t-46.5 -19.5t-19.5 -46.5t19.5 -46t46.5 -19zM879 280q59 0 101.5 -42.5t42.5 -101.5t-42.5 -101t-101.5 -42t-101.5 42t-42.5 101t42.5 101.5t101.5 42.5z
M879 71q27 0 46 19t19 46t-19 46.5t-46 19.5t-46.5 -19.5t-19.5 -46.5t19.5 -46t46.5 -19z" />
    <glyph glyph-name="guilsinglleft" unicode="&#x2039;" horiz-adv-x="335" 
d="M275 425l-112 -157l112 -157h-103l-112 157l112 157h103z" />
    <glyph glyph-name="guilsinglright" unicode="&#x203a;" horiz-adv-x="335" 
d="M163 425l112 -157l-112 -157h-103l112 157l-112 157h103z" />
    <glyph glyph-name="Euro" unicode="&#x20ac;" horiz-adv-x="804" 
d="M563 377h-533l48 85h64q33 109 120.5 176.5t203.5 67.5q93 0 168.5 -44t120.5 -120l-88 -43q-32 52 -84 81.5t-117 29.5q-76 0 -134 -40t-86 -108h365zM466 88q65 0 117 30t84 82l88 -44q-45 -75 -121 -119t-168 -44q-116 0 -203.5 67.5t-120.5 176.5h-112l48 85h465
l-47 -85h-250q28 -68 86 -108.5t134 -40.5z" />
    <glyph glyph-name="ruble" unicode="&#x20bd;" horiz-adv-x="659" 
d="M390 700q104 0 166.5 -63.5t62.5 -159.5q0 -95 -63 -160t-166 -65h-350v95h88v353h262zM390 347q60 0 95 37.5t35 92.5q0 54 -34.5 91t-95.5 37h-167v-258h167zM40 200h403v-84h-220v-116h-95v116h-88v84z" />
    <glyph glyph-name="uni2116" unicode="&#x2116;" horiz-adv-x="1044" 
d="M835 419q-59 0 -101 42t-42 102q0 59 42 101t101 42q60 0 102 -42t42 -101q0 -60 -42 -102t-102 -42zM835 628q-27 0 -46 -19t-19 -46q0 -28 19 -47t46 -19q28 0 47 19t19 47q0 27 -19 46t-47 19zM696 278v84h283v-84h-283zM499 700h96v-707h-9l-426 467v-460h-95v706h8
l426 -471v465z" />
    <glyph glyph-name="minus" unicode="&#x2212;" horiz-adv-x="508" 
d="M60 348h388v-84h-388v84z" />
    <glyph glyph-name="approxequal" unicode="&#x2248;" horiz-adv-x="576" 
d="M269 343q-39 18 -64 19t-38 -8t-31 -32l-76 38q32 45 62.5 65.5t76.5 20t109 -28.5q64 -24 89.5 -18.5t38.5 35.5l80 -28q-61 -148 -247 -63zM308 262q64 -24 89.5 -18.5t38.5 34.5l80 -27q-61 -148 -247 -63q-39 18 -64 19t-38 -8t-31 -32l-76 38q32 45 62.5 65.5
t76.5 20t109 -28.5z" />
    <glyph glyph-name="notequal" unicode="&#x2260;" horiz-adv-x="508" 
d="M448 342h-124l-44 -80h168v-84h-214l-56 -102h-95l56 102h-79v84h125l43 80h-168v83h214l56 103h96l-56 -103h78v-83z" />
    <glyph glyph-name="lessequal" unicode="&#x2264;" horiz-adv-x="463" 
d="M60 9v84h343v-84h-343zM403 564v-106l-228 -104l228 -105v-106l-343 157v107z" />
    <glyph glyph-name="greaterequal" unicode="&#x2265;" horiz-adv-x="463" 
d="M60 9v84h343v-84h-343zM60 564l343 -157v-107l-343 -157v106l227 105l-227 104v106z" />
    <glyph glyph-name="commaaccent" unicode="&#xf6c3;" horiz-adv-x="199" 
d="M69 -77h90l-57 -131h-62z" />
    </font>
</defs>
</svg>
